<?xml version="1.0" encoding="utf-8" standalone="no"?>
<!DOCTYPE svg PUBLIC "-//W3C//DTD SVG 1.1//EN"
  "http://www.w3.org/Graphics/SVG/1.1/DTD/svg11.dtd">
<svg xmlns:xlink="http://www.w3.org/1999/xlink" width="460.8pt" height="345.6pt" viewBox="0 0 460.8 345.6" xmlns="http://www.w3.org/2000/svg" version="1.1">
 <metadata>
  <rdf:RDF xmlns:dc="http://purl.org/dc/elements/1.1/" xmlns:cc="http://creativecommons.org/ns#" xmlns:rdf="http://www.w3.org/1999/02/22-rdf-syntax-ns#">
   <cc:Work>
    <dc:type rdf:resource="http://purl.org/dc/dcmitype/StillImage"/>
    <dc:date>2024-11-23T17:23:18.601826</dc:date>
    <dc:format>image/svg+xml</dc:format>
    <dc:creator>
     <cc:Agent>
      <dc:title>Matplotlib v3.9.2, https://matplotlib.org/</dc:title>
     </cc:Agent>
    </dc:creator>
   </cc:Work>
  </rdf:RDF>
 </metadata>
 <defs>
  <style type="text/css">*{stroke-linejoin: round; stroke-linecap: butt}</style>
 </defs>
 <g id="figure_1">
  <g id="patch_1">
   <path d="M 0 345.6 
L 460.8 345.6 
L 460.8 0 
L 0 0 
z
" style="fill: #ffffff"/>
  </g>
  <g id="axes_1">
   <g id="patch_2">
    <path d="M 57.6 307.584 
L 414.72 307.584 
L 414.72 41.472 
L 57.6 41.472 
z
" style="fill: #ffffff"/>
   </g>
   <g id="matplotlib.axis_1">
    <g id="xtick_1">
     <g id="line2d_1">
      <defs>
       <path id="m7e8d0e763d" d="M 0 0 
L 0 3.5 
" style="stroke: #000000; stroke-width: 0.8"/>
      </defs>
      <g>
       <use xlink:href="#m7e8d0e763d" x="73.832727" y="307.584" style="stroke: #000000; stroke-width: 0.8"/>
      </g>
     </g>
     <g id="text_1">
      <!-- 0 -->
      <g transform="translate(70.651477 322.182437) scale(0.1 -0.1)">
       <defs>
        <path id="DejaVuSans-30" d="M 2034 4250 
Q 1547 4250 1301 3770 
Q 1056 3291 1056 2328 
Q 1056 1369 1301 889 
Q 1547 409 2034 409 
Q 2525 409 2770 889 
Q 3016 1369 3016 2328 
Q 3016 3291 2770 3770 
Q 2525 4250 2034 4250 
z
M 2034 4750 
Q 2819 4750 3233 4129 
Q 3647 3509 3647 2328 
Q 3647 1150 3233 529 
Q 2819 -91 2034 -91 
Q 1250 -91 836 529 
Q 422 1150 422 2328 
Q 422 3509 836 4129 
Q 1250 4750 2034 4750 
z
" transform="scale(0.015625)"/>
       </defs>
       <use xlink:href="#DejaVuSans-30"/>
      </g>
     </g>
    </g>
    <g id="xtick_2">
     <g id="line2d_2">
      <g>
       <use xlink:href="#m7e8d0e763d" x="143.650909" y="307.584" style="stroke: #000000; stroke-width: 0.8"/>
      </g>
     </g>
     <g id="text_2">
      <!-- 100 -->
      <g transform="translate(134.107159 322.182437) scale(0.1 -0.1)">
       <defs>
        <path id="DejaVuSans-31" d="M 794 531 
L 1825 531 
L 1825 4091 
L 703 3866 
L 703 4441 
L 1819 4666 
L 2450 4666 
L 2450 531 
L 3481 531 
L 3481 0 
L 794 0 
L 794 531 
z
" transform="scale(0.015625)"/>
       </defs>
       <use xlink:href="#DejaVuSans-31"/>
       <use xlink:href="#DejaVuSans-30" x="63.623047"/>
       <use xlink:href="#DejaVuSans-30" x="127.246094"/>
      </g>
     </g>
    </g>
    <g id="xtick_3">
     <g id="line2d_3">
      <g>
       <use xlink:href="#m7e8d0e763d" x="213.469091" y="307.584" style="stroke: #000000; stroke-width: 0.8"/>
      </g>
     </g>
     <g id="text_3">
      <!-- 200 -->
      <g transform="translate(203.925341 322.182437) scale(0.1 -0.1)">
       <defs>
        <path id="DejaVuSans-32" d="M 1228 531 
L 3431 531 
L 3431 0 
L 469 0 
L 469 531 
Q 828 903 1448 1529 
Q 2069 2156 2228 2338 
Q 2531 2678 2651 2914 
Q 2772 3150 2772 3378 
Q 2772 3750 2511 3984 
Q 2250 4219 1831 4219 
Q 1534 4219 1204 4116 
Q 875 4013 500 3803 
L 500 4441 
Q 881 4594 1212 4672 
Q 1544 4750 1819 4750 
Q 2544 4750 2975 4387 
Q 3406 4025 3406 3419 
Q 3406 3131 3298 2873 
Q 3191 2616 2906 2266 
Q 2828 2175 2409 1742 
Q 1991 1309 1228 531 
z
" transform="scale(0.015625)"/>
       </defs>
       <use xlink:href="#DejaVuSans-32"/>
       <use xlink:href="#DejaVuSans-30" x="63.623047"/>
       <use xlink:href="#DejaVuSans-30" x="127.246094"/>
      </g>
     </g>
    </g>
    <g id="xtick_4">
     <g id="line2d_4">
      <g>
       <use xlink:href="#m7e8d0e763d" x="283.287273" y="307.584" style="stroke: #000000; stroke-width: 0.8"/>
      </g>
     </g>
     <g id="text_4">
      <!-- 300 -->
      <g transform="translate(273.743523 322.182437) scale(0.1 -0.1)">
       <defs>
        <path id="DejaVuSans-33" d="M 2597 2516 
Q 3050 2419 3304 2112 
Q 3559 1806 3559 1356 
Q 3559 666 3084 287 
Q 2609 -91 1734 -91 
Q 1441 -91 1130 -33 
Q 819 25 488 141 
L 488 750 
Q 750 597 1062 519 
Q 1375 441 1716 441 
Q 2309 441 2620 675 
Q 2931 909 2931 1356 
Q 2931 1769 2642 2001 
Q 2353 2234 1838 2234 
L 1294 2234 
L 1294 2753 
L 1863 2753 
Q 2328 2753 2575 2939 
Q 2822 3125 2822 3475 
Q 2822 3834 2567 4026 
Q 2313 4219 1838 4219 
Q 1578 4219 1281 4162 
Q 984 4106 628 3988 
L 628 4550 
Q 988 4650 1302 4700 
Q 1616 4750 1894 4750 
Q 2613 4750 3031 4423 
Q 3450 4097 3450 3541 
Q 3450 3153 3228 2886 
Q 3006 2619 2597 2516 
z
" transform="scale(0.015625)"/>
       </defs>
       <use xlink:href="#DejaVuSans-33"/>
       <use xlink:href="#DejaVuSans-30" x="63.623047"/>
       <use xlink:href="#DejaVuSans-30" x="127.246094"/>
      </g>
     </g>
    </g>
    <g id="xtick_5">
     <g id="line2d_5">
      <g>
       <use xlink:href="#m7e8d0e763d" x="353.105455" y="307.584" style="stroke: #000000; stroke-width: 0.8"/>
      </g>
     </g>
     <g id="text_5">
      <!-- 400 -->
      <g transform="translate(343.561705 322.182437) scale(0.1 -0.1)">
       <defs>
        <path id="DejaVuSans-34" d="M 2419 4116 
L 825 1625 
L 2419 1625 
L 2419 4116 
z
M 2253 4666 
L 3047 4666 
L 3047 1625 
L 3713 1625 
L 3713 1100 
L 3047 1100 
L 3047 0 
L 2419 0 
L 2419 1100 
L 313 1100 
L 313 1709 
L 2253 4666 
z
" transform="scale(0.015625)"/>
       </defs>
       <use xlink:href="#DejaVuSans-34"/>
       <use xlink:href="#DejaVuSans-30" x="63.623047"/>
       <use xlink:href="#DejaVuSans-30" x="127.246094"/>
      </g>
     </g>
    </g>
    <g id="text_6">
     <!-- Time -->
     <g transform="translate(223.926406 335.860562) scale(0.1 -0.1)">
      <defs>
       <path id="DejaVuSans-54" d="M -19 4666 
L 3928 4666 
L 3928 4134 
L 2272 4134 
L 2272 0 
L 1638 0 
L 1638 4134 
L -19 4134 
L -19 4666 
z
" transform="scale(0.015625)"/>
       <path id="DejaVuSans-69" d="M 603 3500 
L 1178 3500 
L 1178 0 
L 603 0 
L 603 3500 
z
M 603 4863 
L 1178 4863 
L 1178 4134 
L 603 4134 
L 603 4863 
z
" transform="scale(0.015625)"/>
       <path id="DejaVuSans-6d" d="M 3328 2828 
Q 3544 3216 3844 3400 
Q 4144 3584 4550 3584 
Q 5097 3584 5394 3201 
Q 5691 2819 5691 2113 
L 5691 0 
L 5113 0 
L 5113 2094 
Q 5113 2597 4934 2840 
Q 4756 3084 4391 3084 
Q 3944 3084 3684 2787 
Q 3425 2491 3425 1978 
L 3425 0 
L 2847 0 
L 2847 2094 
Q 2847 2600 2669 2842 
Q 2491 3084 2119 3084 
Q 1678 3084 1418 2786 
Q 1159 2488 1159 1978 
L 1159 0 
L 581 0 
L 581 3500 
L 1159 3500 
L 1159 2956 
Q 1356 3278 1631 3431 
Q 1906 3584 2284 3584 
Q 2666 3584 2933 3390 
Q 3200 3197 3328 2828 
z
" transform="scale(0.015625)"/>
       <path id="DejaVuSans-65" d="M 3597 1894 
L 3597 1613 
L 953 1613 
Q 991 1019 1311 708 
Q 1631 397 2203 397 
Q 2534 397 2845 478 
Q 3156 559 3463 722 
L 3463 178 
Q 3153 47 2828 -22 
Q 2503 -91 2169 -91 
Q 1331 -91 842 396 
Q 353 884 353 1716 
Q 353 2575 817 3079 
Q 1281 3584 2069 3584 
Q 2775 3584 3186 3129 
Q 3597 2675 3597 1894 
z
M 3022 2063 
Q 3016 2534 2758 2815 
Q 2500 3097 2075 3097 
Q 1594 3097 1305 2825 
Q 1016 2553 972 2059 
L 3022 2063 
z
" transform="scale(0.015625)"/>
      </defs>
      <use xlink:href="#DejaVuSans-54"/>
      <use xlink:href="#DejaVuSans-69" x="57.958984"/>
      <use xlink:href="#DejaVuSans-6d" x="85.742188"/>
      <use xlink:href="#DejaVuSans-65" x="183.154297"/>
     </g>
    </g>
   </g>
   <g id="matplotlib.axis_2">
    <g id="ytick_1">
     <g id="line2d_6">
      <defs>
       <path id="m119aaa6893" d="M 0 0 
L -3.5 0 
" style="stroke: #000000; stroke-width: 0.8"/>
      </defs>
      <g>
       <use xlink:href="#m119aaa6893" x="57.6" y="282.457251" style="stroke: #000000; stroke-width: 0.8"/>
      </g>
     </g>
     <g id="text_7">
      <!-- 0.6 -->
      <g transform="translate(34.696875 286.25647) scale(0.1 -0.1)">
       <defs>
        <path id="DejaVuSans-2e" d="M 684 794 
L 1344 794 
L 1344 0 
L 684 0 
L 684 794 
z
" transform="scale(0.015625)"/>
        <path id="DejaVuSans-36" d="M 2113 2584 
Q 1688 2584 1439 2293 
Q 1191 2003 1191 1497 
Q 1191 994 1439 701 
Q 1688 409 2113 409 
Q 2538 409 2786 701 
Q 3034 994 3034 1497 
Q 3034 2003 2786 2293 
Q 2538 2584 2113 2584 
z
M 3366 4563 
L 3366 3988 
Q 3128 4100 2886 4159 
Q 2644 4219 2406 4219 
Q 1781 4219 1451 3797 
Q 1122 3375 1075 2522 
Q 1259 2794 1537 2939 
Q 1816 3084 2150 3084 
Q 2853 3084 3261 2657 
Q 3669 2231 3669 1497 
Q 3669 778 3244 343 
Q 2819 -91 2113 -91 
Q 1303 -91 875 529 
Q 447 1150 447 2328 
Q 447 3434 972 4092 
Q 1497 4750 2381 4750 
Q 2619 4750 2861 4703 
Q 3103 4656 3366 4563 
z
" transform="scale(0.015625)"/>
       </defs>
       <use xlink:href="#DejaVuSans-30"/>
       <use xlink:href="#DejaVuSans-2e" x="63.623047"/>
       <use xlink:href="#DejaVuSans-36" x="95.410156"/>
      </g>
     </g>
    </g>
    <g id="ytick_2">
     <g id="line2d_7">
      <g>
       <use xlink:href="#m119aaa6893" x="57.6" y="251.107712" style="stroke: #000000; stroke-width: 0.8"/>
      </g>
     </g>
     <g id="text_8">
      <!-- 0.8 -->
      <g transform="translate(34.696875 254.906931) scale(0.1 -0.1)">
       <defs>
        <path id="DejaVuSans-38" d="M 2034 2216 
Q 1584 2216 1326 1975 
Q 1069 1734 1069 1313 
Q 1069 891 1326 650 
Q 1584 409 2034 409 
Q 2484 409 2743 651 
Q 3003 894 3003 1313 
Q 3003 1734 2745 1975 
Q 2488 2216 2034 2216 
z
M 1403 2484 
Q 997 2584 770 2862 
Q 544 3141 544 3541 
Q 544 4100 942 4425 
Q 1341 4750 2034 4750 
Q 2731 4750 3128 4425 
Q 3525 4100 3525 3541 
Q 3525 3141 3298 2862 
Q 3072 2584 2669 2484 
Q 3125 2378 3379 2068 
Q 3634 1759 3634 1313 
Q 3634 634 3220 271 
Q 2806 -91 2034 -91 
Q 1263 -91 848 271 
Q 434 634 434 1313 
Q 434 1759 690 2068 
Q 947 2378 1403 2484 
z
M 1172 3481 
Q 1172 3119 1398 2916 
Q 1625 2713 2034 2713 
Q 2441 2713 2670 2916 
Q 2900 3119 2900 3481 
Q 2900 3844 2670 4047 
Q 2441 4250 2034 4250 
Q 1625 4250 1398 4047 
Q 1172 3844 1172 3481 
z
" transform="scale(0.015625)"/>
       </defs>
       <use xlink:href="#DejaVuSans-30"/>
       <use xlink:href="#DejaVuSans-2e" x="63.623047"/>
       <use xlink:href="#DejaVuSans-38" x="95.410156"/>
      </g>
     </g>
    </g>
    <g id="ytick_3">
     <g id="line2d_8">
      <g>
       <use xlink:href="#m119aaa6893" x="57.6" y="219.758174" style="stroke: #000000; stroke-width: 0.8"/>
      </g>
     </g>
     <g id="text_9">
      <!-- 1.0 -->
      <g transform="translate(34.696875 223.557392) scale(0.1 -0.1)">
       <use xlink:href="#DejaVuSans-31"/>
       <use xlink:href="#DejaVuSans-2e" x="63.623047"/>
       <use xlink:href="#DejaVuSans-30" x="95.410156"/>
      </g>
     </g>
    </g>
    <g id="ytick_4">
     <g id="line2d_9">
      <g>
       <use xlink:href="#m119aaa6893" x="57.6" y="188.408635" style="stroke: #000000; stroke-width: 0.8"/>
      </g>
     </g>
     <g id="text_10">
      <!-- 1.2 -->
      <g transform="translate(34.696875 192.207854) scale(0.1 -0.1)">
       <use xlink:href="#DejaVuSans-31"/>
       <use xlink:href="#DejaVuSans-2e" x="63.623047"/>
       <use xlink:href="#DejaVuSans-32" x="95.410156"/>
      </g>
     </g>
    </g>
    <g id="ytick_5">
     <g id="line2d_10">
      <g>
       <use xlink:href="#m119aaa6893" x="57.6" y="157.059097" style="stroke: #000000; stroke-width: 0.8"/>
      </g>
     </g>
     <g id="text_11">
      <!-- 1.4 -->
      <g transform="translate(34.696875 160.858315) scale(0.1 -0.1)">
       <use xlink:href="#DejaVuSans-31"/>
       <use xlink:href="#DejaVuSans-2e" x="63.623047"/>
       <use xlink:href="#DejaVuSans-34" x="95.410156"/>
      </g>
     </g>
    </g>
    <g id="ytick_6">
     <g id="line2d_11">
      <g>
       <use xlink:href="#m119aaa6893" x="57.6" y="125.709558" style="stroke: #000000; stroke-width: 0.8"/>
      </g>
     </g>
     <g id="text_12">
      <!-- 1.6 -->
      <g transform="translate(34.696875 129.508777) scale(0.1 -0.1)">
       <use xlink:href="#DejaVuSans-31"/>
       <use xlink:href="#DejaVuSans-2e" x="63.623047"/>
       <use xlink:href="#DejaVuSans-36" x="95.410156"/>
      </g>
     </g>
    </g>
    <g id="ytick_7">
     <g id="line2d_12">
      <g>
       <use xlink:href="#m119aaa6893" x="57.6" y="94.36002" style="stroke: #000000; stroke-width: 0.8"/>
      </g>
     </g>
     <g id="text_13">
      <!-- 1.8 -->
      <g transform="translate(34.696875 98.159238) scale(0.1 -0.1)">
       <use xlink:href="#DejaVuSans-31"/>
       <use xlink:href="#DejaVuSans-2e" x="63.623047"/>
       <use xlink:href="#DejaVuSans-38" x="95.410156"/>
      </g>
     </g>
    </g>
    <g id="ytick_8">
     <g id="line2d_13">
      <g>
       <use xlink:href="#m119aaa6893" x="57.6" y="63.010481" style="stroke: #000000; stroke-width: 0.8"/>
      </g>
     </g>
     <g id="text_14">
      <!-- 2.0 -->
      <g transform="translate(34.696875 66.8097) scale(0.1 -0.1)">
       <use xlink:href="#DejaVuSans-32"/>
       <use xlink:href="#DejaVuSans-2e" x="63.623047"/>
       <use xlink:href="#DejaVuSans-30" x="95.410156"/>
      </g>
     </g>
    </g>
    <g id="text_15">
     <!-- Concentration -->
     <g transform="translate(28.617187 209.899094) rotate(-90) scale(0.1 -0.1)">
      <defs>
       <path id="DejaVuSans-43" d="M 4122 4306 
L 4122 3641 
Q 3803 3938 3442 4084 
Q 3081 4231 2675 4231 
Q 1875 4231 1450 3742 
Q 1025 3253 1025 2328 
Q 1025 1406 1450 917 
Q 1875 428 2675 428 
Q 3081 428 3442 575 
Q 3803 722 4122 1019 
L 4122 359 
Q 3791 134 3420 21 
Q 3050 -91 2638 -91 
Q 1578 -91 968 557 
Q 359 1206 359 2328 
Q 359 3453 968 4101 
Q 1578 4750 2638 4750 
Q 3056 4750 3426 4639 
Q 3797 4528 4122 4306 
z
" transform="scale(0.015625)"/>
       <path id="DejaVuSans-6f" d="M 1959 3097 
Q 1497 3097 1228 2736 
Q 959 2375 959 1747 
Q 959 1119 1226 758 
Q 1494 397 1959 397 
Q 2419 397 2687 759 
Q 2956 1122 2956 1747 
Q 2956 2369 2687 2733 
Q 2419 3097 1959 3097 
z
M 1959 3584 
Q 2709 3584 3137 3096 
Q 3566 2609 3566 1747 
Q 3566 888 3137 398 
Q 2709 -91 1959 -91 
Q 1206 -91 779 398 
Q 353 888 353 1747 
Q 353 2609 779 3096 
Q 1206 3584 1959 3584 
z
" transform="scale(0.015625)"/>
       <path id="DejaVuSans-6e" d="M 3513 2113 
L 3513 0 
L 2938 0 
L 2938 2094 
Q 2938 2591 2744 2837 
Q 2550 3084 2163 3084 
Q 1697 3084 1428 2787 
Q 1159 2491 1159 1978 
L 1159 0 
L 581 0 
L 581 3500 
L 1159 3500 
L 1159 2956 
Q 1366 3272 1645 3428 
Q 1925 3584 2291 3584 
Q 2894 3584 3203 3211 
Q 3513 2838 3513 2113 
z
" transform="scale(0.015625)"/>
       <path id="DejaVuSans-63" d="M 3122 3366 
L 3122 2828 
Q 2878 2963 2633 3030 
Q 2388 3097 2138 3097 
Q 1578 3097 1268 2742 
Q 959 2388 959 1747 
Q 959 1106 1268 751 
Q 1578 397 2138 397 
Q 2388 397 2633 464 
Q 2878 531 3122 666 
L 3122 134 
Q 2881 22 2623 -34 
Q 2366 -91 2075 -91 
Q 1284 -91 818 406 
Q 353 903 353 1747 
Q 353 2603 823 3093 
Q 1294 3584 2113 3584 
Q 2378 3584 2631 3529 
Q 2884 3475 3122 3366 
z
" transform="scale(0.015625)"/>
       <path id="DejaVuSans-74" d="M 1172 4494 
L 1172 3500 
L 2356 3500 
L 2356 3053 
L 1172 3053 
L 1172 1153 
Q 1172 725 1289 603 
Q 1406 481 1766 481 
L 2356 481 
L 2356 0 
L 1766 0 
Q 1100 0 847 248 
Q 594 497 594 1153 
L 594 3053 
L 172 3053 
L 172 3500 
L 594 3500 
L 594 4494 
L 1172 4494 
z
" transform="scale(0.015625)"/>
       <path id="DejaVuSans-72" d="M 2631 2963 
Q 2534 3019 2420 3045 
Q 2306 3072 2169 3072 
Q 1681 3072 1420 2755 
Q 1159 2438 1159 1844 
L 1159 0 
L 581 0 
L 581 3500 
L 1159 3500 
L 1159 2956 
Q 1341 3275 1631 3429 
Q 1922 3584 2338 3584 
Q 2397 3584 2469 3576 
Q 2541 3569 2628 3553 
L 2631 2963 
z
" transform="scale(0.015625)"/>
       <path id="DejaVuSans-61" d="M 2194 1759 
Q 1497 1759 1228 1600 
Q 959 1441 959 1056 
Q 959 750 1161 570 
Q 1363 391 1709 391 
Q 2188 391 2477 730 
Q 2766 1069 2766 1631 
L 2766 1759 
L 2194 1759 
z
M 3341 1997 
L 3341 0 
L 2766 0 
L 2766 531 
Q 2569 213 2275 61 
Q 1981 -91 1556 -91 
Q 1019 -91 701 211 
Q 384 513 384 1019 
Q 384 1609 779 1909 
Q 1175 2209 1959 2209 
L 2766 2209 
L 2766 2266 
Q 2766 2663 2505 2880 
Q 2244 3097 1772 3097 
Q 1472 3097 1187 3025 
Q 903 2953 641 2809 
L 641 3341 
Q 956 3463 1253 3523 
Q 1550 3584 1831 3584 
Q 2591 3584 2966 3190 
Q 3341 2797 3341 1997 
z
" transform="scale(0.015625)"/>
      </defs>
      <use xlink:href="#DejaVuSans-43"/>
      <use xlink:href="#DejaVuSans-6f" x="69.824219"/>
      <use xlink:href="#DejaVuSans-6e" x="131.005859"/>
      <use xlink:href="#DejaVuSans-63" x="194.384766"/>
      <use xlink:href="#DejaVuSans-65" x="249.365234"/>
      <use xlink:href="#DejaVuSans-6e" x="310.888672"/>
      <use xlink:href="#DejaVuSans-74" x="374.267578"/>
      <use xlink:href="#DejaVuSans-72" x="413.476562"/>
      <use xlink:href="#DejaVuSans-61" x="454.589844"/>
      <use xlink:href="#DejaVuSans-74" x="515.869141"/>
      <use xlink:href="#DejaVuSans-69" x="555.078125"/>
      <use xlink:href="#DejaVuSans-6f" x="582.861328"/>
      <use xlink:href="#DejaVuSans-6e" x="644.042969"/>
     </g>
    </g>
   </g>
   <g id="line2d_14">
    <path d="M 73.832727 219.756606 
L 76.381091 219.760211 
L 98.548364 219.771497 
L 107.066182 219.737797 
L 109.090909 219.755039 
L 111.848727 219.768049 
L 114.920727 219.753471 
L 117.748364 219.769616 
L 120.401455 219.725257 
L 122.775273 219.831218 
L 126.824727 219.773535 
L 128.535273 219.87307 
L 130.036364 219.697042 
L 131.432727 219.615533 
L 132.654545 219.779491 
L 134.120727 219.943293 
L 135.168 219.819462 
L 137.122909 219.532457 
L 138.100364 219.68607 
L 140.125091 220.031228 
L 140.997818 219.854574 
L 142.813091 219.410194 
L 143.546182 219.515215 
L 145.989818 220.169793 
L 146.688 219.971194 
L 148.677818 219.229934 
L 149.236364 219.33182 
L 150.004364 219.723689 
L 151.226182 220.360869 
L 151.784727 220.390807 
L 152.343273 220.191268 
L 153.146182 219.626506 
L 154.018909 219.057512 
L 154.542545 218.955626 
L 155.031273 219.085726 
L 155.589818 219.472893 
L 157.090909 220.681261 
L 157.544727 220.732988 
L 157.998545 220.551474 
L 158.557091 220.053957 
L 160.023273 218.606078 
L 160.442182 218.543379 
L 160.861091 218.728341 
L 161.314909 219.178207 
L 162.257455 220.492223 
L 162.850909 221.108085 
L 163.269818 221.249001 
L 163.618909 221.13771 
L 164.037818 220.736593 
L 164.631273 219.80269 
L 165.678545 218.15778 
L 166.097455 217.905416 
L 166.411636 217.955575 
L 166.760727 218.258098 
L 167.214545 218.985408 
L 168.855273 221.936967 
L 169.169455 222.009854 
L 169.448727 221.857025 
L 169.797818 221.387409 
L 170.286545 220.311023 
L 171.613091 217.190647 
L 171.927273 216.93985 
L 172.171636 216.961795 
L 172.450909 217.226698 
L 172.834909 217.979087 
L 173.428364 219.760995 
L 174.370909 222.556747 
L 174.754909 223.101602 
L 175.034182 223.154583 
L 175.278545 222.946108 
L 175.592727 222.338397 
L 176.046545 220.895848 
L 177.512727 215.732893 
L 177.792 215.446045 
L 178.001455 215.482097 
L 178.245818 215.801862 
L 178.56 216.62949 
L 179.048727 218.653102 
L 180.340364 224.335833 
L 180.654545 224.854668 
L 180.864 224.885861 
L 181.073455 224.652307 
L 181.352727 223.936283 
L 181.771636 222.098417 
L 182.609455 217.008819 
L 183.202909 214.058828 
L 183.552 213.2312 
L 183.761455 213.155961 
L 183.936 213.350328 
L 184.180364 214.008668 
L 184.529455 215.660789 
L 185.088 219.521485 
L 186.030545 225.979646 
L 186.414545 227.288019 
L 186.624 227.487873 
L 186.798545 227.35307 
L 187.008 226.8253 
L 187.322182 225.317387 
L 187.776 221.881321 
L 189.172364 210.400336 
L 189.451636 209.662055 
L 189.626182 209.647948 
L 189.800727 209.991225 
L 190.045091 211.058677 
L 190.429091 213.964779 
L 191.092364 221.185518 
L 191.860364 228.934497 
L 192.244364 230.952467 
L 192.453818 231.288534 
L 192.593455 231.186178 
L 192.768 230.683645 
L 193.047273 229.031367 
L 193.431273 225.229138 
L 194.129455 215.547931 
L 194.827636 206.802977 
L 195.176727 204.531703 
L 195.386182 204.133564 
L 195.490909 204.227612 
L 195.665455 204.816984 
L 195.944727 206.857839 
L 196.328727 211.564972 
L 197.166545 225.610662 
L 197.794909 234.185545 
L 198.144 236.480174 
L 198.318545 236.772979 
L 198.423273 236.657613 
L 198.597818 235.972155 
L 198.877091 233.60934 
L 199.261091 228.037273 
L 199.924364 214.25633 
L 200.692364 199.473455 
L 201.041455 196.139431 
L 201.250909 195.631569 
L 201.355636 195.824369 
L 201.530182 196.808744 
L 201.809455 200.031477 
L 202.228364 208.058526 
L 203.834182 242.802593 
L 204.113455 244.350162 
L 204.183273 244.393111 
L 204.218182 244.361448 
L 204.357818 243.877255 
L 204.567273 242.075126 
L 204.881455 237.017192 
L 205.335273 225.380713 
L 206.766545 184.654528 
L 207.045818 182.558811 
L 207.115636 182.530597 
L 207.150545 182.593296 
L 207.290182 183.345685 
L 207.499636 185.944561 
L 207.848727 193.816431 
L 208.407273 212.807981 
L 209.384727 246.096645 
L 209.768727 252.87081 
L 210.013091 254.315397 
L 210.082909 254.288123 
L 210.222545 253.632918 
L 210.432 251.13577 
L 210.746182 244.026479 
L 211.165091 228.831984 
L 212.736 164.548501 
L 212.945455 163.026481 
L 213.015273 163.117395 
L 213.154909 164.192684 
L 213.364364 167.951494 
L 213.713455 179.284352 
L 214.272 206.397 
L 215.249455 253.64389 
L 215.633455 263.426043 
L 215.877818 265.801241 
L 215.947636 265.897327 
L 215.982545 265.846698 
L 216.087273 265.296043 
L 216.296727 262.385395 
L 216.576 254.722784 
L 216.96 237.308272 
L 217.553455 198.166179 
L 218.356364 147.447328 
L 218.705455 137.66784 
L 218.845091 136.703841 
L 218.88 136.728921 
L 218.984727 137.43742 
L 219.159273 140.647613 
L 219.438545 150.560337 
L 219.892364 176.351603 
L 221.358545 267.969689 
L 221.707636 276.087808 
L 221.882182 277.179713 
L 221.917091 277.156671 
L 222.021818 276.600217 
L 222.196364 274.032846 
L 222.475636 265.567217 
L 222.824727 247.243411 
L 223.313455 208.082038 
L 224.395636 116.589977 
L 224.674909 108.193003 
L 224.779636 107.417102 
L 224.814545 107.440615 
L 224.919273 108.334076 
L 225.093818 112.425191 
L 225.373091 124.914847 
L 225.826909 156.856892 
L 227.362909 274.825206 
L 227.712 284.446379 
L 227.921455 285.829207 
L 228.026182 285.28639 
L 228.200727 282.53343 
L 228.445091 274.682879 
L 228.794182 254.88925 
L 229.248 213.724955 
L 230.504727 88.466306 
L 230.749091 82.886088 
L 230.784 82.788905 
L 230.818909 82.859441 
L 230.923636 84.047589 
L 231.133091 90.482082 
L 231.447273 108.566063 
L 231.970909 153.75799 
L 233.262545 270.507277 
L 233.646545 286.711226 
L 233.925818 290.92288 
L 233.995636 290.998433 
L 234.030545 290.890433 
L 234.170182 289.483153 
L 234.379636 284.393555 
L 234.658909 271.732574 
L 235.042909 242.337836 
L 235.566545 180.804805 
L 236.404364 82.696424 
L 236.718545 68.479408 
L 236.858182 67.34142 
L 236.962909 68.433951 
L 237.137455 73.600355 
L 237.451636 91.637312 
L 237.940364 134.879298 
L 239.441455 276.660878 
L 239.825455 290.966143 
L 240.069818 293.568625 
L 240.139636 293.409682 
L 240.279273 291.890797 
L 240.488727 286.548052 
L 240.768 273.33814 
L 241.152 242.575622 
L 241.640727 182.601133 
L 242.513455 74.64743 
L 242.827636 60.438251 
L 242.932364 59.504035 
L 242.967273 59.591814 
L 243.072 60.979031 
L 243.281455 68.35401 
L 243.630545 91.463322 
L 244.224 149.67001 
L 245.410909 268.356542 
L 245.829818 289.07796 
L 246.109091 294.384183 
L 246.213818 294.683414 
L 246.248727 294.581215 
L 246.388364 293.160767 
L 246.597818 287.936837 
L 246.877091 274.8216 
L 247.226182 247.421007 
L 247.714909 188.099842 
L 248.657455 69.443406 
L 248.936727 57.086986 
L 249.041455 56.030506 
L 249.076364 56.085368 
L 249.181091 57.409886 
L 249.390545 64.761353 
L 249.739636 88.04152 
L 250.333091 146.804663 
L 251.52 267.471231 
L 251.938909 288.973566 
L 252.218182 294.717115 
L 252.322909 295.166824 
L 252.357818 295.113687 
L 252.462545 294.345466 
L 252.637091 291.014734 
L 252.916364 280.093652 
L 253.265455 255.703084 
L 253.684364 209.345424 
L 254.906182 60.795636 
L 255.150545 54.610372 
L 255.185455 54.577455 
L 255.255273 55.10883 
L 255.394909 58.400531 
L 255.639273 70.338436 
L 256.058182 104.170858 
L 256.896 195.520278 
L 257.629091 266.165052 
L 258.048 288.477616 
L 258.327273 294.716801 
L 258.466909 295.348181 
L 258.571636 294.753951 
L 258.746182 291.71477 
L 258.990545 282.981572 
L 259.304727 263.326822 
L 259.723636 220.792238 
L 261.12 56.828352 
L 261.294545 53.975544 
L 261.364364 54.289039 
L 261.504 57.193574 
L 261.748364 68.593834 
L 262.167273 101.865099 
L 262.970182 189.099893 
L 263.738182 264.662155 
L 264.157091 287.79404 
L 264.471273 294.92747 
L 264.576 295.434549 
L 264.610909 295.399908 
L 264.715636 294.685922 
L 264.890182 291.442029 
L 265.134545 282.399568 
L 265.483636 259.418475 
L 265.902545 214.663874 
L 267.194182 58.665435 
L 267.403636 53.796852 
L 267.438545 53.734153 
L 267.473455 53.872091 
L 267.578182 55.44427 
L 267.787636 63.286357 
L 268.136727 87.282861 
L 268.730182 146.911251 
L 269.917091 268.124712 
L 270.336 289.472024 
L 270.615273 295.072619 
L 270.72 295.464645 
L 270.754909 295.3916 
L 270.859636 294.562248 
L 271.034182 291.12148 
L 271.313455 279.993491 
L 271.662545 255.264191 
L 272.116364 203.689968 
L 273.233455 63.218955 
L 273.477818 54.24515 
L 273.547636 53.652644 
L 273.617455 53.879928 
L 273.757091 56.627715 
L 274.001455 67.816365 
L 274.385455 97.615669 
L 275.118545 176.102374 
L 275.991273 264.034224 
L 276.410182 287.509542 
L 276.724364 294.886246 
L 276.829091 295.470915 
L 276.864 295.461823 
L 276.968727 294.824487 
L 277.143273 291.710067 
L 277.387636 282.859152 
L 277.701818 263.021164 
L 278.120727 220.187192 
L 279.517091 56.292275 
L 279.691636 53.594647 
L 279.761455 53.970842 
L 279.901091 56.99137 
L 280.145455 68.571889 
L 280.564364 102.072006 
L 281.367273 189.512139 
L 282.135273 264.989288 
L 282.554182 287.986526 
L 282.868364 295.012898 
L 282.973091 295.484395 
L 283.008 295.437841 
L 283.112727 294.687803 
L 283.287273 291.381681 
L 283.566545 280.485051 
L 283.915636 256.081003 
L 284.334545 209.575844 
L 285.556364 59.903742 
L 285.800727 53.627564 
L 285.835636 53.588377 
L 285.905455 54.110347 
L 286.045091 57.397346 
L 286.289455 69.36033 
L 286.708364 103.289936 
L 287.546182 194.918367 
L 288.279273 265.926482 
L 288.698182 288.444699 
L 288.977455 294.798153 
L 289.117091 295.481103 
L 289.152 295.397243 
L 289.256727 294.534661 
L 289.466182 290.021581 
L 289.745455 277.887742 
L 290.094545 251.731725 
L 290.548364 198.371519 
L 291.595636 65.093658 
L 291.874909 54.130724 
L 291.944727 53.583675 
L 291.979636 53.618159 
L 292.084364 54.90349 
L 292.293818 62.251822 
L 292.608 82.821822 
L 293.166545 137.111385 
L 294.493091 271.60937 
L 294.877091 290.01343 
L 295.156364 295.216356 
L 295.226182 295.482671 
L 295.261091 295.46292 
L 295.365818 294.793608 
L 295.540364 291.624796 
L 295.784727 282.692216 
L 296.098909 262.73557 
L 296.517818 219.733094 
L 297.914182 56.155904 
L 298.088727 53.569567 
L 298.158545 53.988084 
L 298.298182 57.083851 
L 298.542545 68.775661 
L 298.961455 102.401176 
L 299.764364 189.918115 
L 300.532364 265.254662 
L 300.951273 288.118664 
L 301.230545 294.696111 
L 301.370182 295.48753 
L 301.405091 295.430474 
L 301.509818 294.64893 
L 301.684364 291.2892 
L 301.963636 280.299776 
L 302.312727 255.763746 
L 302.731636 209.099331 
L 303.953455 59.721914 
L 304.197818 53.604052 
L 304.232727 53.585242 
L 304.337455 54.716961 
L 304.512 60.214102 
L 304.826182 79.363968 
L 305.349818 128.541989 
L 306.816 275.392632 
L 307.2 291.713672 
L 307.444364 295.362132 
L 307.514182 295.478595 
L 307.549091 295.384233 
L 307.688727 293.987768 
L 307.898182 288.778102 
L 308.177455 275.629635 
L 308.526545 248.043765 
L 308.980364 192.97783 
L 309.957818 67.220724 
L 310.237091 54.647992 
L 310.341818 53.572702 
L 310.376727 53.629132 
L 310.481455 54.972459 
L 310.690909 62.422677 
L 311.04 85.958343 
L 311.633455 145.221511 
L 312.855273 269.524939 
L 313.274182 290.122997 
L 313.553455 295.240495 
L 313.623273 295.485806 
L 313.658182 295.45571 
L 313.762909 294.755205 
L 313.937455 291.533256 
L 314.181818 282.521361 
L 314.530909 259.582276 
L 314.949818 214.861376 
L 316.241455 58.568251 
L 316.450909 53.643239 
L 316.485818 53.571135 
L 316.520727 53.701236 
L 316.625455 55.253038 
L 316.834909 63.063775 
L 317.184 87.030497 
L 317.777455 146.652617 
L 318.964364 268.00433 
L 319.383273 289.429858 
L 319.662545 295.077791 
L 319.767273 295.486589 
L 319.802182 295.419188 
L 319.906909 294.606451 
L 320.081455 291.193427 
L 320.360727 280.112305 
L 320.709818 255.446175 
L 321.163636 203.942332 
L 322.315636 61.297229 
L 322.56 53.795284 
L 322.629818 53.594647 
L 322.664727 53.798419 
L 322.804364 56.508587 
L 323.048727 67.64551 
L 323.432727 97.396222 
L 324.165818 175.85628 
L 325.038545 263.886568 
L 325.457455 287.441044 
L 325.771636 294.874176 
L 325.911273 295.473736 
L 326.016 294.854112 
L 326.190545 291.769788 
L 326.434909 282.963389 
L 326.749091 263.188727 
L 327.168 220.440967 
L 328.564364 56.329894 
L 328.738909 53.569567 
L 328.808727 53.92225 
L 328.948364 56.900456 
L 329.192727 68.424546 
L 329.611636 101.860397 
L 330.414545 189.270747 
L 331.182545 264.837243 
L 331.601455 287.913795 
L 331.915636 294.997536 
L 332.020364 295.48753 
L 332.055273 295.447089 
L 332.16 294.715234 
L 332.334545 291.440304 
L 332.613818 280.596969 
L 332.962909 256.26816 
L 333.381818 209.85172 
L 334.603636 59.993088 
L 334.848 53.625997 
L 334.882909 53.57427 
L 334.952727 54.072728 
L 335.092364 57.317405 
L 335.336727 69.219257 
L 335.755636 103.081461 
L 336.593455 194.676975 
L 337.326545 265.773967 
L 337.745455 288.371811 
L 338.024727 294.776522 
L 338.164364 295.484395 
L 338.199273 295.406648 
L 338.304 294.562562 
L 338.478545 291.0964 
L 338.757818 279.923581 
L 339.106909 255.12735 
L 339.560727 203.457981 
L 340.677818 63.05437 
L 340.922182 54.155804 
L 340.992 53.583675 
L 341.061818 53.829769 
L 341.201455 56.615175 
L 341.445818 67.860255 
L 341.829818 97.723825 
L 342.562909 176.263824 
L 343.435636 264.152255 
L 343.854545 287.573966 
L 344.168727 294.909915 
L 344.273455 295.481103 
L 344.308364 295.467623 
L 344.413091 294.816963 
L 344.587636 291.679658 
L 344.832 282.794258 
L 345.146182 262.905484 
L 345.565091 219.997527 
L 346.961455 56.218603 
L 347.136 53.568 
L 347.205818 53.961437 
L 347.345455 57.014882 
L 347.589818 68.643993 
L 348.008727 102.198972 
L 348.811636 189.676724 
L 349.579636 265.099011 
L 349.998545 288.042641 
L 350.277818 294.671658 
L 350.417455 295.488 
L 350.452364 295.437214 
L 350.557091 294.674323 
L 350.731636 291.346256 
L 351.010909 280.41138 
L 351.36 255.95294 
L 351.778909 209.381476 
L 353.000727 59.822233 
L 353.245091 53.610322 
L 353.28 53.58054 
L 353.349818 54.118184 
L 353.489455 57.436533 
L 353.733818 69.443406 
L 354.152727 103.423171 
L 354.990545 195.079817 
L 355.723636 266.031974 
L 356.142545 288.496583 
L 356.421818 294.815082 
L 356.561455 295.481103 
L 356.596364 295.393011 
L 356.736 294.021469 
L 356.945455 288.850676 
L 357.224727 275.758638 
L 357.573818 248.252396 
L 358.027636 193.278786 
L 359.005091 67.371202 
L 359.284364 54.688746 
L 359.389091 53.575837 
L 359.424 53.619727 
L 359.528727 54.92857 
L 359.738182 62.317656 
L 360.087273 85.781218 
L 360.680727 144.984822 
L 361.902545 269.380261 
L 362.321455 290.058103 
L 362.600727 295.226702 
L 362.670545 295.484395 
L 362.705455 295.460569 
L 362.810182 294.778717 
L 362.984727 291.588431 
L 363.229091 282.623874 
L 363.543273 262.620987 
L 363.962182 219.552834 
L 365.358545 56.110448 
L 365.533091 53.568 
L 365.602909 54.002191 
L 365.742545 57.129308 
L 365.986909 68.86344 
L 366.405818 102.537547 
L 367.208727 190.081133 
L 367.976727 265.359683 
L 368.395636 288.170234 
L 368.674909 294.712883 
L 368.814545 295.48753 
L 368.849455 295.426241 
L 368.954182 294.632158 
L 369.128727 291.250953 
L 369.408 280.224693 
L 369.757091 255.63631 
L 370.176 208.909666 
L 371.397818 59.652945 
L 371.642182 53.597782 
L 371.677091 53.588377 
L 371.781818 54.743608 
L 371.956364 60.276801 
L 372.270545 79.472124 
L 372.794182 128.694034 
L 374.260364 275.478373 
L 374.644364 291.750195 
L 374.888727 295.368872 
L 374.958545 295.476871 
L 374.993455 295.378277 
L 375.133091 293.965039 
L 375.342545 288.729353 
L 375.621818 275.54264 
L 375.970909 247.903319 
L 376.424727 192.774058 
L 377.402182 67.118838 
L 377.681455 54.619777 
L 377.786182 53.571135 
L 377.821091 53.635402 
L 377.925818 55.002241 
L 378.135273 62.493214 
L 378.484364 86.077471 
L 379.077818 145.381394 
L 380.299636 269.622279 
L 380.718545 290.166729 
L 380.997818 295.249744 
L 381.067636 295.486746 
L 381.102545 295.452418 
L 381.207273 294.739373 
L 381.381818 291.496107 
L 381.626182 282.452235 
L 381.975273 259.461894 
L 382.394182 214.676414 
L 383.685818 58.50712 
L 383.895273 53.635402 
L 383.930182 53.571135 
L 383.965091 53.71064 
L 384.069818 55.285955 
L 384.279273 63.135879 
L 384.628364 87.151193 
L 385.221818 146.8125 
L 386.408727 268.104492 
L 386.827636 289.476256 
L 387.106909 295.089704 
L 387.211636 295.485962 
L 387.246545 295.414329 
L 387.351273 294.589052 
L 387.525818 291.15471 
L 387.805091 280.036596 
L 388.154182 255.318269 
L 388.608 203.747964 
L 389.725091 63.181336 
L 389.969455 54.187153 
L 390.039273 53.588377 
L 390.109091 53.810959 
L 390.248727 56.550909 
L 390.493091 67.731722 
L 390.877091 97.52789 
L 391.610182 176.020865 
L 392.482909 263.993627 
L 392.901818 287.494651 
L 393.216 294.888754 
L 393.320727 295.478752 
L 393.355636 295.471385 
L 393.460364 294.839378 
L 393.634909 291.733736 
L 393.879273 282.895517 
L 394.193455 263.075085 
L 394.612364 220.262901 
L 396.008727 56.284438 
L 396.183273 53.568 
L 396.253091 53.937925 
L 396.392727 56.945913 
L 396.637091 68.512325 
L 397.056 101.9952 
L 397.858909 189.433765 
L 398.487273 253.884027 
L 398.487273 253.884027 
" clip-path="url(#p28745992e4)" style="fill: none; stroke: #1f77b4; stroke-width: 1.5; stroke-linecap: square"/>
   </g>
   <g id="line2d_15">
    <path d="M 73.832727 219.758174 
L 140.264727 219.868994 
L 141.591273 219.795166 
L 143.755636 219.628073 
L 147.281455 219.841407 
L 149.515636 219.554402 
L 150.667636 219.766168 
L 152.098909 220.019786 
L 152.971636 219.921662 
L 155.415273 219.455651 
L 156.253091 219.67353 
L 157.893818 220.153491 
L 158.592 220.074647 
L 159.464727 219.725257 
L 160.581818 219.297336 
L 161.210182 219.291066 
L 161.873455 219.515215 
L 163.828364 220.361966 
L 164.386909 220.256318 
L 165.050182 219.888118 
L 166.446545 219.051242 
L 167.005091 219.037134 
L 167.528727 219.261284 
L 168.261818 219.848147 
L 169.239273 220.574202 
L 169.728 220.67264 
L 170.181818 220.538934 
L 170.740364 220.106624 
L 172.346182 218.662507 
L 172.765091 218.638995 
L 173.218909 218.870982 
L 173.777455 219.460353 
L 175.104 221.009961 
L 175.522909 221.146018 
L 175.906909 221.024225 
L 176.325818 220.631415 
L 176.954182 219.687637 
L 177.931636 218.273773 
L 178.350545 218.037084 
L 178.699636 218.096648 
L 179.048727 218.394469 
L 179.537455 219.148425 
L 181.003636 221.704823 
L 181.352727 221.85875 
L 181.666909 221.74354 
L 182.016 221.335526 
L 182.504727 220.359144 
L 183.901091 217.336422 
L 184.250182 217.127947 
L 184.529455 217.218861 
L 184.843636 217.599758 
L 185.262545 218.50576 
L 186.205091 221.314678 
L 186.763636 222.581043 
L 187.112727 222.915229 
L 187.357091 222.887014 
L 187.636364 222.579319 
L 187.985455 221.808747 
L 188.544 219.920878 
L 189.556364 216.439825 
L 189.940364 215.825374 
L 190.184727 215.75954 
L 190.429091 215.96488 
L 190.708364 216.522901 
L 191.127273 217.922658 
L 192.837818 224.40684 
L 193.082182 224.528006 
L 193.291636 224.36154 
L 193.570909 223.752889 
L 193.954909 222.268645 
L 194.653091 218.407009 
L 195.386182 214.745383 
L 195.770182 213.787654 
L 196.014545 213.666958 
L 196.189091 213.828409 
L 196.433455 214.400538 
L 196.782545 215.861426 
L 197.341091 219.345927 
L 198.353455 225.691858 
L 198.702545 226.727176 
L 198.912 226.884864 
L 199.086545 226.728744 
L 199.330909 226.067895 
L 199.68 224.288025 
L 200.203636 220.245816 
L 201.250909 212.03208 
L 201.6 210.734209 
L 201.809455 210.505357 
L 201.949091 210.599406 
L 202.158545 211.107269 
L 202.472727 212.662206 
L 202.926545 216.314427 
L 204.392727 229.454116 
L 204.672 230.214656 
L 204.811636 230.232368 
L 204.951273 229.997717 
L 205.195636 228.980267 
L 205.544727 226.276527 
L 206.103273 219.725257 
L 207.080727 208.295215 
L 207.464727 206.169716 
L 207.674182 205.865626 
L 207.813818 206.017671 
L 208.023273 206.774762 
L 208.337455 209.050739 
L 208.791273 214.366053 
L 210.292364 233.817972 
L 210.571636 234.794823 
L 210.676364 234.796077 
L 210.816 234.475371 
L 211.025455 233.300861 
L 211.339636 230.050854 
L 211.828364 222.171148 
L 212.980364 202.54571 
L 213.329455 199.885701 
L 213.538909 199.427998 
L 213.643636 199.529884 
L 213.818182 200.186657 
L 214.062545 202.100546 
L 214.446545 207.240303 
L 215.04 218.84747 
L 215.947636 236.267154 
L 216.331636 239.897431 
L 216.541091 240.404823 
L 216.645818 240.233655 
L 216.820364 239.302887 
L 217.099636 236.154609 
L 217.483636 228.832454 
L 219.159273 192.625148 
L 219.403636 191.573371 
L 219.508364 191.596883 
L 219.648 192.063991 
L 219.892364 194.049985 
L 220.241455 199.293195 
L 220.730182 210.560219 
L 222.056727 243.128628 
L 222.370909 245.910743 
L 222.510545 246.144297 
L 222.615273 245.890522 
L 222.789818 244.633406 
L 223.069091 240.463447 
L 223.453091 230.803243 
L 225.024 185.947696 
L 225.303273 183.911544 
L 225.408 183.776741 
L 225.442909 183.804955 
L 225.582545 184.283036 
L 225.792 186.052717 
L 226.106182 190.933841 
L 226.56 202.14757 
L 228.270545 249.627544 
L 228.514909 250.777445 
L 228.584727 250.681202 
L 228.724364 249.902323 
L 228.933818 247.24733 
L 229.248 239.997122 
L 229.736727 222.445613 
L 230.714182 186.432047 
L 231.098182 179.610387 
L 231.342545 178.04291 
L 231.412364 177.973941 
L 231.447273 177.999021 
L 231.586909 178.494344 
L 231.796364 180.367479 
L 232.110545 185.537017 
L 232.564364 197.493731 
L 233.332364 225.518965 
L 233.995636 246.524566 
L 234.379636 252.706539 
L 234.589091 253.642479 
L 234.658909 253.54169 
L 234.798545 252.700269 
L 235.008 249.809685 
L 235.322182 241.865555 
L 235.810909 222.531824 
L 236.753455 184.303413 
L 237.137455 176.650991 
L 237.416727 174.693212 
L 237.486545 174.646188 
L 237.521455 174.685375 
L 237.661091 175.249666 
L 237.870545 177.251334 
L 238.184727 182.65913 
L 238.638545 195.061007 
L 239.336727 221.609364 
L 240.069818 246.893707 
L 240.453818 253.799384 
L 240.663273 255.060262 
L 240.733091 255.054933 
L 240.837818 254.634065 
L 241.012364 252.808111 
L 241.291636 246.935559 
L 241.675636 233.404001 
L 243.106909 177.082047 
L 243.421091 173.4455 
L 243.560727 173.047361 
L 243.595636 173.058334 
L 243.700364 173.338912 
L 243.874909 174.608568 
L 244.154182 178.568015 
L 244.538182 187.549658 
L 245.061818 205.469054 
L 246.283636 249.615944 
L 246.632727 254.968565 
L 246.807273 255.724716 
L 246.842182 255.712489 
L 246.946909 255.339743 
L 247.121455 253.575705 
L 247.400727 247.744064 
L 247.784727 234.116733 
L 249.216 176.583589 
L 249.530182 172.802835 
L 249.704727 172.359239 
L 249.809455 172.61317 
L 249.984 173.845207 
L 250.263273 177.756062 
L 250.647273 186.687546 
L 251.170909 204.606942 
L 252.427636 250.219737 
L 252.776727 255.367174 
L 252.951273 255.994792 
L 253.021091 255.858735 
L 253.160727 254.902104 
L 253.370182 251.721536 
L 253.684364 243.067339 
L 254.173091 222.116443 
L 255.080727 182.62151 
L 255.464727 174.343665 
L 255.744 172.152332 
L 255.813818 172.066121 
L 255.848727 172.089633 
L 255.953455 172.410966 
L 256.162909 174.132055 
L 256.477091 179.188736 
L 256.896 190.106213 
L 257.489455 212.207637 
L 258.432 247.307678 
L 258.816 254.624974 
L 259.060364 256.102321 
L 259.130182 256.031314 
L 259.269818 255.206037 
L 259.479273 252.220778 
L 259.793455 243.832738 
L 260.282182 223.106304 
L 261.224727 182.080731 
L 261.608727 174.031737 
L 261.853091 172.0912 
L 261.957818 171.95483 
L 261.992727 171.997152 
L 262.132364 172.578686 
L 262.376727 175.103891 
L 262.725818 181.735886 
L 263.179636 195.133111 
L 263.982545 227.293819 
L 264.610909 248.57467 
L 264.994909 255.168731 
L 265.204364 256.150442 
L 265.274182 256.03586 
L 265.413818 255.12014 
L 265.623273 251.994591 
L 265.937455 243.399488 
L 266.426182 222.44718 
L 267.368727 181.643405 
L 267.752727 173.81229 
L 267.997091 172.003422 
L 268.101818 171.918778 
L 268.206545 172.219733 
L 268.416 173.903204 
L 268.730182 178.909725 
L 269.149091 189.77234 
L 269.742545 211.842415 
L 270.72 248.044235 
L 271.104 254.97311 
L 271.313455 256.158123 
L 271.383273 256.113763 
L 271.522909 255.341624 
L 271.732364 252.434738 
L 272.046545 244.151877 
L 272.500364 225.196848 
L 273.512727 181.253103 
L 273.896727 173.636733 
L 274.141091 171.951695 
L 274.210909 171.885861 
L 274.245818 171.91721 
L 274.385455 172.462692 
L 274.594909 174.46436 
L 274.909091 179.905073 
L 275.362909 192.429213 
L 276.026182 218.225181 
L 276.829091 247.483706 
L 277.213091 254.744572 
L 277.457455 256.173954 
L 277.527273 256.0879 
L 277.666909 255.230177 
L 277.876364 252.192093 
L 278.190545 243.719253 
L 278.679273 222.879961 
L 279.621818 181.873824 
L 280.005818 173.895366 
L 280.250182 172.001854 
L 280.354909 171.884293 
L 280.389818 171.932885 
L 280.529455 172.539499 
L 280.773818 175.103891 
L 281.122909 181.787613 
L 281.576727 195.24597 
L 282.379636 227.461226 
L 283.008 248.695365 
L 283.392 255.232998 
L 283.601455 256.177873 
L 283.671273 256.050124 
L 283.810909 255.107286 
L 284.020364 251.938789 
L 284.334545 243.278792 
L 284.823273 222.251089 
L 285.730909 182.521192 
L 286.114909 174.180647 
L 286.394182 171.962667 
L 286.464 171.873321 
L 286.498909 171.893698 
L 286.603636 172.210329 
L 286.813091 173.922013 
L 287.127273 178.967722 
L 287.546182 189.875794 
L 288.139636 211.992893 
L 289.117091 248.147846 
L 289.501091 255.022016 
L 289.710545 256.1727 
L 289.780364 256.116115 
L 289.92 255.319209 
L 290.129455 252.373607 
L 290.443636 244.033532 
L 290.897455 225.017843 
L 291.909818 181.13711 
L 292.293818 173.580303 
L 292.538182 171.932885 
L 292.608 171.874889 
L 292.642909 171.910941 
L 292.782545 172.475232 
L 292.992 174.50198 
L 293.306182 179.975609 
L 293.76 192.545207 
L 294.423273 218.377227 
L 295.226182 247.582143 
L 295.610182 254.789402 
L 295.854545 256.179597 
L 295.924364 256.08163 
L 296.064 255.199924 
L 296.273455 252.124691 
L 296.587636 243.59793 
L 297.076364 222.702522 
L 298.018909 181.7641 
L 298.402909 173.845207 
L 298.647273 171.986179 
L 298.752 171.882726 
L 298.786909 171.934453 
L 298.926545 172.559876 
L 299.170909 175.150915 
L 299.52 181.870689 
L 299.973818 195.3698 
L 300.811636 229.016006 
L 301.405091 248.784555 
L 301.789091 255.267326 
L 301.998545 256.178657 
L 302.103273 255.884128 
L 302.277818 254.239688 
L 302.522182 249.472677 
L 302.871273 237.904384 
L 303.569455 204.832658 
L 304.162909 181.397311 
L 304.546909 173.688459 
L 304.791273 171.953262 
L 304.861091 171.871754 
L 304.896 171.896833 
L 305.000727 172.226003 
L 305.210182 173.9612 
L 305.524364 179.039826 
L 305.943273 189.987084 
L 306.536727 212.141803 
L 307.479273 247.339811 
L 307.863273 254.685635 
L 308.107636 256.175992 
L 308.177455 256.107964 
L 308.317091 255.287389 
L 308.526545 252.305578 
L 308.840727 243.913307 
L 309.294545 224.845734 
L 310.306909 181.036791 
L 310.690909 173.537982 
L 310.935273 171.925048 
L 311.005091 171.876456 
L 311.04 171.91721 
L 311.179636 172.497177 
L 311.389091 174.547437 
L 311.703273 180.053983 
L 312.157091 192.664335 
L 312.820364 218.527704 
L 313.623273 247.674938 
L 314.007273 254.828746 
L 314.251636 256.180381 
L 314.321455 256.070971 
L 314.461091 255.165597 
L 314.670545 252.054155 
L 314.984727 243.475667 
L 315.473455 222.528219 
L 316.416 181.660647 
L 316.8 173.801318 
L 317.044364 171.976775 
L 317.149091 171.885861 
L 317.253818 172.182114 
L 317.428364 173.479985 
L 317.707636 177.495861 
L 318.091636 186.562147 
L 318.615273 204.661803 
L 319.872 250.471317 
L 320.221091 255.580978 
L 320.395636 256.177246 
L 320.500364 255.865318 
L 320.674909 254.190939 
L 320.919273 249.382077 
L 321.268364 237.760489 
L 321.966545 204.661803 
L 322.56 181.295425 
L 322.944 173.646137 
L 323.188364 171.943858 
L 323.258182 171.871754 
L 323.293091 171.901536 
L 323.432727 172.43918 
L 323.642182 174.428308 
L 323.956364 179.851779 
L 324.410182 192.355542 
L 325.073455 218.13897 
L 325.876364 247.433703 
L 326.260364 254.726233 
L 326.504727 256.17803 
L 326.574545 256.098559 
L 326.714182 255.254316 
L 326.923636 252.236452 
L 327.237818 243.792297 
L 327.726545 222.980279 
L 328.669091 181.928686 
L 329.053091 173.917311 
L 329.297455 172.003422 
L 329.402182 171.878024 
L 329.437091 171.92348 
L 329.576727 172.520689 
L 329.821091 175.069407 
L 330.170182 181.734318 
L 330.624 195.170731 
L 331.426909 227.376112 
L 332.055273 248.64552 
L 332.439273 255.215599 
L 332.648727 256.180224 
L 332.718545 256.059372 
L 332.858182 255.130328 
L 333.067636 251.982835 
L 333.381818 243.352777 
L 333.870545 222.353916 
L 334.778182 182.582323 
L 335.162182 174.207294 
L 335.441455 171.96737 
L 335.546182 171.888996 
L 335.650909 172.197789 
L 335.860364 173.895366 
L 336.174545 178.922265 
L 336.593455 189.808392 
L 337.186909 211.905114 
L 338.164364 248.094865 
L 338.548364 255.001325 
L 338.757818 256.17176 
L 338.827636 256.122071 
L 338.967273 255.338959 
L 339.176727 252.414675 
L 339.490909 244.105323 
L 339.944727 225.119885 
L 340.957091 181.195106 
L 341.341091 173.603816 
L 341.585455 171.93602 
L 341.655273 171.873321 
L 341.690182 171.907806 
L 341.829818 172.461125 
L 342.039273 174.473765 
L 342.353455 179.930152 
L 342.807273 192.47467 
L 343.470545 218.28788 
L 344.273455 247.526968 
L 344.657455 254.766203 
L 344.901818 256.179441 
L 344.971636 256.08837 
L 345.111273 255.220615 
L 345.320727 252.166856 
L 345.634909 243.670818 
L 346.123636 222.806446 
L 347.066182 181.825232 
L 347.450182 173.871854 
L 347.694545 171.992449 
L 347.799273 171.881158 
L 347.834182 171.92975 
L 347.973818 172.544201 
L 348.218182 175.121133 
L 348.567273 181.818962 
L 349.021091 195.296129 
L 349.824 227.520946 
L 350.452364 248.732828 
L 350.836364 255.248359 
L 351.045818 256.179597 
L 351.115636 256.046989 
L 351.255273 255.094433 
L 351.464727 251.911044 
L 351.778909 243.22926 
L 352.267636 222.179299 
L 353.175273 182.474168 
L 353.559273 174.158702 
L 353.838545 171.957965 
L 353.908364 171.871754 
L 353.943273 171.893698 
L 354.048 172.215031 
L 354.257455 173.936121 
L 354.571636 178.995936 
L 354.990545 189.919683 
L 355.584 212.052457 
L 356.561455 248.184995 
L 356.945455 255.037377 
L 357.154909 256.174581 
L 357.224727 256.11345 
L 357.364364 255.306826 
L 357.573818 252.346646 
L 357.888 243.985254 
L 358.341818 224.948403 
L 359.354182 181.096355 
L 359.738182 173.563061 
L 359.982545 171.928183 
L 360.052364 171.874889 
L 360.087273 171.912508 
L 360.226909 172.48307 
L 360.436364 174.52079 
L 360.750545 180.006959 
L 361.204364 192.592231 
L 361.867636 218.438358 
L 362.670545 247.619763 
L 363.054545 254.805547 
L 363.298909 256.180224 
L 363.368727 256.077711 
L 363.508364 255.186444 
L 363.717818 252.096477 
L 364.032 243.548868 
L 364.520727 222.632299 
L 365.463273 181.721779 
L 365.847273 173.826397 
L 366.091636 171.983044 
L 366.196364 171.884293 
L 366.231273 171.937588 
L 366.370909 172.569281 
L 366.615273 175.171293 
L 366.964364 181.905173 
L 367.418182 195.419959 
L 368.256 229.073689 
L 368.849455 248.819509 
L 369.233455 255.280336 
L 369.442909 256.178343 
L 369.547636 255.876761 
L 369.722182 254.220251 
L 369.966545 249.436468 
L 370.315636 237.846544 
L 371.013818 204.763689 
L 371.607273 181.356556 
L 371.991273 173.671217 
L 372.235636 171.94856 
L 372.305455 171.871754 
L 372.340364 171.898401 
L 372.48 172.425073 
L 372.689455 174.401661 
L 373.003636 179.806322 
L 373.422545 191.143882 
L 374.050909 215.116875 
L 374.923636 247.377744 
L 375.307636 254.702094 
L 375.552 256.176933 
L 375.621818 256.104358 
L 375.761455 255.274223 
L 375.970909 252.277991 
L 376.285091 243.864715 
L 376.773818 223.084203 
L 377.716364 181.989817 
L 378.100364 173.943958 
L 378.344727 172.009692 
L 378.449455 171.876456 
L 378.484364 171.918778 
L 378.624 172.506582 
L 378.833455 174.566246 
L 379.147636 180.085333 
L 379.601455 192.711359 
L 380.264727 218.588836 
L 381.067636 247.712087 
L 381.451636 254.844421 
L 381.661091 256.153264 
L 381.730909 256.151696 
L 381.835636 255.724402 
L 382.010182 253.853462 
L 382.289455 247.810838 
L 382.673455 233.840073 
L 384.069818 176.561645 
L 384.384 172.462692 
L 384.558545 171.871754 
L 384.628364 171.945425 
L 384.768 172.592793 
L 385.012364 175.223019 
L 385.361455 181.989817 
L 385.815273 195.545358 
L 386.653091 229.216486 
L 387.246545 248.905877 
L 387.595636 254.979537 
L 387.805091 256.169722 
L 387.874909 256.12693 
L 388.014545 255.357926 
L 388.224 252.455115 
L 388.538182 244.176956 
L 388.992 225.222242 
L 390.004364 181.25467 
L 390.388364 173.628895 
L 390.632727 171.940723 
L 390.702545 171.873321 
L 390.737455 171.904671 
L 390.877091 172.447018 
L 391.086545 174.447118 
L 391.400727 179.883128 
L 391.854545 192.402566 
L 392.517818 218.198534 
L 393.320727 247.471166 
L 393.704727 254.742378 
L 393.949091 256.178657 
L 394.018909 256.094483 
L 394.158545 255.240835 
L 394.368 252.208551 
L 394.682182 243.743549 
L 395.170909 222.91037 
L 396.113455 181.886364 
L 396.497455 173.898501 
L 396.741818 171.998719 
L 396.846545 171.879591 
L 396.881455 171.926615 
L 397.021091 172.530094 
L 397.265455 175.089784 
L 397.614545 181.768803 
L 398.068364 195.22089 
L 398.487273 211.431736 
L 398.487273 211.431736 
" clip-path="url(#p28745992e4)" style="fill: none; stroke: #ff7f0e; stroke-width: 1.5; stroke-linecap: square"/>
   </g>
   <g id="patch_3">
    <path d="M 57.6 307.584 
L 57.6 41.472 
" style="fill: none; stroke: #000000; stroke-width: 0.8; stroke-linejoin: miter; stroke-linecap: square"/>
   </g>
   <g id="patch_4">
    <path d="M 414.72 307.584 
L 414.72 41.472 
" style="fill: none; stroke: #000000; stroke-width: 0.8; stroke-linejoin: miter; stroke-linecap: square"/>
   </g>
   <g id="patch_5">
    <path d="M 57.6 307.584 
L 414.72 307.584 
" style="fill: none; stroke: #000000; stroke-width: 0.8; stroke-linejoin: miter; stroke-linecap: square"/>
   </g>
   <g id="patch_6">
    <path d="M 57.6 41.472 
L 414.72 41.472 
" style="fill: none; stroke: #000000; stroke-width: 0.8; stroke-linejoin: miter; stroke-linecap: square"/>
   </g>
   <g id="legend_1">
    <g id="patch_7">
     <path d="M 64.6 78.82825 
L 102.9375 78.82825 
Q 104.9375 78.82825 104.9375 76.82825 
L 104.9375 48.472 
Q 104.9375 46.472 102.9375 46.472 
L 64.6 46.472 
Q 62.6 46.472 62.6 48.472 
L 62.6 76.82825 
Q 62.6 78.82825 64.6 78.82825 
z
" style="fill: #ffffff; opacity: 0.8; stroke: #cccccc; stroke-linejoin: miter"/>
    </g>
    <g id="line2d_16">
     <path d="M 66.6 54.570437 
L 76.6 54.570437 
L 86.6 54.570437 
" style="fill: none; stroke: #1f77b4; stroke-width: 1.5; stroke-linecap: square"/>
    </g>
    <g id="text_16">
     <!-- u -->
     <g transform="translate(94.6 58.070437) scale(0.1 -0.1)">
      <defs>
       <path id="DejaVuSans-75" d="M 544 1381 
L 544 3500 
L 1119 3500 
L 1119 1403 
Q 1119 906 1312 657 
Q 1506 409 1894 409 
Q 2359 409 2629 706 
Q 2900 1003 2900 1516 
L 2900 3500 
L 3475 3500 
L 3475 0 
L 2900 0 
L 2900 538 
Q 2691 219 2414 64 
Q 2138 -91 1772 -91 
Q 1169 -91 856 284 
Q 544 659 544 1381 
z
M 1991 3584 
L 1991 3584 
z
" transform="scale(0.015625)"/>
      </defs>
      <use xlink:href="#DejaVuSans-75"/>
     </g>
    </g>
    <g id="line2d_17">
     <path d="M 66.6 69.248562 
L 76.6 69.248562 
L 86.6 69.248562 
" style="fill: none; stroke: #ff7f0e; stroke-width: 1.5; stroke-linecap: square"/>
    </g>
    <g id="text_17">
     <!-- v -->
     <g transform="translate(94.6 72.748562) scale(0.1 -0.1)">
      <defs>
       <path id="DejaVuSans-76" d="M 191 3500 
L 800 3500 
L 1894 563 
L 2988 3500 
L 3597 3500 
L 2284 0 
L 1503 0 
L 191 3500 
z
" transform="scale(0.015625)"/>
      </defs>
      <use xlink:href="#DejaVuSans-76"/>
     </g>
    </g>
   </g>
  </g>
 </g>
 <defs>
  <clipPath id="p28745992e4">
   <rect x="57.6" y="41.472" width="357.12" height="266.112"/>
  </clipPath>
 </defs>
</svg>
