<?xml version="1.0" encoding="utf-8" standalone="no"?>
<!DOCTYPE svg PUBLIC "-//W3C//DTD SVG 1.1//EN"
  "http://www.w3.org/Graphics/SVG/1.1/DTD/svg11.dtd">
<svg xmlns:xlink="http://www.w3.org/1999/xlink" width="460.8pt" height="345.6pt" viewBox="0 0 460.8 345.6" xmlns="http://www.w3.org/2000/svg" version="1.1">
 <metadata>
  <rdf:RDF xmlns:dc="http://purl.org/dc/elements/1.1/" xmlns:cc="http://creativecommons.org/ns#" xmlns:rdf="http://www.w3.org/1999/02/22-rdf-syntax-ns#">
   <cc:Work>
    <dc:type rdf:resource="http://purl.org/dc/dcmitype/StillImage"/>
    <dc:date>2024-11-23T17:23:18.696317</dc:date>
    <dc:format>image/svg+xml</dc:format>
    <dc:creator>
     <cc:Agent>
      <dc:title>Matplotlib v3.9.2, https://matplotlib.org/</dc:title>
     </cc:Agent>
    </dc:creator>
   </cc:Work>
  </rdf:RDF>
 </metadata>
 <defs>
  <style type="text/css">*{stroke-linejoin: round; stroke-linecap: butt}</style>
 </defs>
 <g id="figure_1">
  <g id="patch_1">
   <path d="M 0 345.6 
L 460.8 345.6 
L 460.8 0 
L 0 0 
z
" style="fill: #ffffff"/>
  </g>
  <g id="axes_1">
   <g id="patch_2">
    <path d="M 57.6 307.584 
L 414.72 307.584 
L 414.72 41.472 
L 57.6 41.472 
z
" style="fill: #ffffff"/>
   </g>
   <g id="matplotlib.axis_1">
    <g id="xtick_1">
     <g id="line2d_1">
      <defs>
       <path id="m90c33a7bbd" d="M 0 0 
L 0 3.5 
" style="stroke: #000000; stroke-width: 0.8"/>
      </defs>
      <g>
       <use xlink:href="#m90c33a7bbd" x="73.832727" y="307.584" style="stroke: #000000; stroke-width: 0.8"/>
      </g>
     </g>
     <g id="text_1">
      <!-- 0 -->
      <g transform="translate(70.651477 322.182437) scale(0.1 -0.1)">
       <defs>
        <path id="DejaVuSans-30" d="M 2034 4250 
Q 1547 4250 1301 3770 
Q 1056 3291 1056 2328 
Q 1056 1369 1301 889 
Q 1547 409 2034 409 
Q 2525 409 2770 889 
Q 3016 1369 3016 2328 
Q 3016 3291 2770 3770 
Q 2525 4250 2034 4250 
z
M 2034 4750 
Q 2819 4750 3233 4129 
Q 3647 3509 3647 2328 
Q 3647 1150 3233 529 
Q 2819 -91 2034 -91 
Q 1250 -91 836 529 
Q 422 1150 422 2328 
Q 422 3509 836 4129 
Q 1250 4750 2034 4750 
z
" transform="scale(0.015625)"/>
       </defs>
       <use xlink:href="#DejaVuSans-30"/>
      </g>
     </g>
    </g>
    <g id="xtick_2">
     <g id="line2d_2">
      <g>
       <use xlink:href="#m90c33a7bbd" x="138.77013" y="307.584" style="stroke: #000000; stroke-width: 0.8"/>
      </g>
     </g>
     <g id="text_2">
      <!-- 100 -->
      <g transform="translate(129.22638 322.182437) scale(0.1 -0.1)">
       <defs>
        <path id="DejaVuSans-31" d="M 794 531 
L 1825 531 
L 1825 4091 
L 703 3866 
L 703 4441 
L 1819 4666 
L 2450 4666 
L 2450 531 
L 3481 531 
L 3481 0 
L 794 0 
L 794 531 
z
" transform="scale(0.015625)"/>
       </defs>
       <use xlink:href="#DejaVuSans-31"/>
       <use xlink:href="#DejaVuSans-30" x="63.623047"/>
       <use xlink:href="#DejaVuSans-30" x="127.246094"/>
      </g>
     </g>
    </g>
    <g id="xtick_3">
     <g id="line2d_3">
      <g>
       <use xlink:href="#m90c33a7bbd" x="203.707533" y="307.584" style="stroke: #000000; stroke-width: 0.8"/>
      </g>
     </g>
     <g id="text_3">
      <!-- 200 -->
      <g transform="translate(194.163783 322.182437) scale(0.1 -0.1)">
       <defs>
        <path id="DejaVuSans-32" d="M 1228 531 
L 3431 531 
L 3431 0 
L 469 0 
L 469 531 
Q 828 903 1448 1529 
Q 2069 2156 2228 2338 
Q 2531 2678 2651 2914 
Q 2772 3150 2772 3378 
Q 2772 3750 2511 3984 
Q 2250 4219 1831 4219 
Q 1534 4219 1204 4116 
Q 875 4013 500 3803 
L 500 4441 
Q 881 4594 1212 4672 
Q 1544 4750 1819 4750 
Q 2544 4750 2975 4387 
Q 3406 4025 3406 3419 
Q 3406 3131 3298 2873 
Q 3191 2616 2906 2266 
Q 2828 2175 2409 1742 
Q 1991 1309 1228 531 
z
" transform="scale(0.015625)"/>
       </defs>
       <use xlink:href="#DejaVuSans-32"/>
       <use xlink:href="#DejaVuSans-30" x="63.623047"/>
       <use xlink:href="#DejaVuSans-30" x="127.246094"/>
      </g>
     </g>
    </g>
    <g id="xtick_4">
     <g id="line2d_4">
      <g>
       <use xlink:href="#m90c33a7bbd" x="268.644936" y="307.584" style="stroke: #000000; stroke-width: 0.8"/>
      </g>
     </g>
     <g id="text_4">
      <!-- 300 -->
      <g transform="translate(259.101186 322.182437) scale(0.1 -0.1)">
       <defs>
        <path id="DejaVuSans-33" d="M 2597 2516 
Q 3050 2419 3304 2112 
Q 3559 1806 3559 1356 
Q 3559 666 3084 287 
Q 2609 -91 1734 -91 
Q 1441 -91 1130 -33 
Q 819 25 488 141 
L 488 750 
Q 750 597 1062 519 
Q 1375 441 1716 441 
Q 2309 441 2620 675 
Q 2931 909 2931 1356 
Q 2931 1769 2642 2001 
Q 2353 2234 1838 2234 
L 1294 2234 
L 1294 2753 
L 1863 2753 
Q 2328 2753 2575 2939 
Q 2822 3125 2822 3475 
Q 2822 3834 2567 4026 
Q 2313 4219 1838 4219 
Q 1578 4219 1281 4162 
Q 984 4106 628 3988 
L 628 4550 
Q 988 4650 1302 4700 
Q 1616 4750 1894 4750 
Q 2613 4750 3031 4423 
Q 3450 4097 3450 3541 
Q 3450 3153 3228 2886 
Q 3006 2619 2597 2516 
z
" transform="scale(0.015625)"/>
       </defs>
       <use xlink:href="#DejaVuSans-33"/>
       <use xlink:href="#DejaVuSans-30" x="63.623047"/>
       <use xlink:href="#DejaVuSans-30" x="127.246094"/>
      </g>
     </g>
    </g>
    <g id="xtick_5">
     <g id="line2d_5">
      <g>
       <use xlink:href="#m90c33a7bbd" x="333.582339" y="307.584" style="stroke: #000000; stroke-width: 0.8"/>
      </g>
     </g>
     <g id="text_5">
      <!-- 400 -->
      <g transform="translate(324.038589 322.182437) scale(0.1 -0.1)">
       <defs>
        <path id="DejaVuSans-34" d="M 2419 4116 
L 825 1625 
L 2419 1625 
L 2419 4116 
z
M 2253 4666 
L 3047 4666 
L 3047 1625 
L 3713 1625 
L 3713 1100 
L 3047 1100 
L 3047 0 
L 2419 0 
L 2419 1100 
L 313 1100 
L 313 1709 
L 2253 4666 
z
" transform="scale(0.015625)"/>
       </defs>
       <use xlink:href="#DejaVuSans-34"/>
       <use xlink:href="#DejaVuSans-30" x="63.623047"/>
       <use xlink:href="#DejaVuSans-30" x="127.246094"/>
      </g>
     </g>
    </g>
    <g id="xtick_6">
     <g id="line2d_6">
      <g>
       <use xlink:href="#m90c33a7bbd" x="398.519741" y="307.584" style="stroke: #000000; stroke-width: 0.8"/>
      </g>
     </g>
     <g id="text_6">
      <!-- 500 -->
      <g transform="translate(388.975991 322.182437) scale(0.1 -0.1)">
       <defs>
        <path id="DejaVuSans-35" d="M 691 4666 
L 3169 4666 
L 3169 4134 
L 1269 4134 
L 1269 2991 
Q 1406 3038 1543 3061 
Q 1681 3084 1819 3084 
Q 2600 3084 3056 2656 
Q 3513 2228 3513 1497 
Q 3513 744 3044 326 
Q 2575 -91 1722 -91 
Q 1428 -91 1123 -41 
Q 819 9 494 109 
L 494 744 
Q 775 591 1075 516 
Q 1375 441 1709 441 
Q 2250 441 2565 725 
Q 2881 1009 2881 1497 
Q 2881 1984 2565 2268 
Q 2250 2553 1709 2553 
Q 1456 2553 1204 2497 
Q 953 2441 691 2322 
L 691 4666 
z
" transform="scale(0.015625)"/>
       </defs>
       <use xlink:href="#DejaVuSans-35"/>
       <use xlink:href="#DejaVuSans-30" x="63.623047"/>
       <use xlink:href="#DejaVuSans-30" x="127.246094"/>
      </g>
     </g>
    </g>
    <g id="text_7">
     <!-- Time -->
     <g transform="translate(223.926406 335.860562) scale(0.1 -0.1)">
      <defs>
       <path id="DejaVuSans-54" d="M -19 4666 
L 3928 4666 
L 3928 4134 
L 2272 4134 
L 2272 0 
L 1638 0 
L 1638 4134 
L -19 4134 
L -19 4666 
z
" transform="scale(0.015625)"/>
       <path id="DejaVuSans-69" d="M 603 3500 
L 1178 3500 
L 1178 0 
L 603 0 
L 603 3500 
z
M 603 4863 
L 1178 4863 
L 1178 4134 
L 603 4134 
L 603 4863 
z
" transform="scale(0.015625)"/>
       <path id="DejaVuSans-6d" d="M 3328 2828 
Q 3544 3216 3844 3400 
Q 4144 3584 4550 3584 
Q 5097 3584 5394 3201 
Q 5691 2819 5691 2113 
L 5691 0 
L 5113 0 
L 5113 2094 
Q 5113 2597 4934 2840 
Q 4756 3084 4391 3084 
Q 3944 3084 3684 2787 
Q 3425 2491 3425 1978 
L 3425 0 
L 2847 0 
L 2847 2094 
Q 2847 2600 2669 2842 
Q 2491 3084 2119 3084 
Q 1678 3084 1418 2786 
Q 1159 2488 1159 1978 
L 1159 0 
L 581 0 
L 581 3500 
L 1159 3500 
L 1159 2956 
Q 1356 3278 1631 3431 
Q 1906 3584 2284 3584 
Q 2666 3584 2933 3390 
Q 3200 3197 3328 2828 
z
" transform="scale(0.015625)"/>
       <path id="DejaVuSans-65" d="M 3597 1894 
L 3597 1613 
L 953 1613 
Q 991 1019 1311 708 
Q 1631 397 2203 397 
Q 2534 397 2845 478 
Q 3156 559 3463 722 
L 3463 178 
Q 3153 47 2828 -22 
Q 2503 -91 2169 -91 
Q 1331 -91 842 396 
Q 353 884 353 1716 
Q 353 2575 817 3079 
Q 1281 3584 2069 3584 
Q 2775 3584 3186 3129 
Q 3597 2675 3597 1894 
z
M 3022 2063 
Q 3016 2534 2758 2815 
Q 2500 3097 2075 3097 
Q 1594 3097 1305 2825 
Q 1016 2553 972 2059 
L 3022 2063 
z
" transform="scale(0.015625)"/>
      </defs>
      <use xlink:href="#DejaVuSans-54"/>
      <use xlink:href="#DejaVuSans-69" x="57.958984"/>
      <use xlink:href="#DejaVuSans-6d" x="85.742188"/>
      <use xlink:href="#DejaVuSans-65" x="183.154297"/>
     </g>
    </g>
   </g>
   <g id="matplotlib.axis_2">
    <g id="ytick_1">
     <g id="line2d_7">
      <defs>
       <path id="mb2551d1a6f" d="M 0 0 
L -3.5 0 
" style="stroke: #000000; stroke-width: 0.8"/>
      </defs>
      <g>
       <use xlink:href="#mb2551d1a6f" x="57.6" y="303.892527" style="stroke: #000000; stroke-width: 0.8"/>
      </g>
     </g>
     <g id="text_8">
      <!-- 0.9 -->
      <g transform="translate(34.696875 307.691746) scale(0.1 -0.1)">
       <defs>
        <path id="DejaVuSans-2e" d="M 684 794 
L 1344 794 
L 1344 0 
L 684 0 
L 684 794 
z
" transform="scale(0.015625)"/>
        <path id="DejaVuSans-39" d="M 703 97 
L 703 672 
Q 941 559 1184 500 
Q 1428 441 1663 441 
Q 2288 441 2617 861 
Q 2947 1281 2994 2138 
Q 2813 1869 2534 1725 
Q 2256 1581 1919 1581 
Q 1219 1581 811 2004 
Q 403 2428 403 3163 
Q 403 3881 828 4315 
Q 1253 4750 1959 4750 
Q 2769 4750 3195 4129 
Q 3622 3509 3622 2328 
Q 3622 1225 3098 567 
Q 2575 -91 1691 -91 
Q 1453 -91 1209 -44 
Q 966 3 703 97 
z
M 1959 2075 
Q 2384 2075 2632 2365 
Q 2881 2656 2881 3163 
Q 2881 3666 2632 3958 
Q 2384 4250 1959 4250 
Q 1534 4250 1286 3958 
Q 1038 3666 1038 3163 
Q 1038 2656 1286 2365 
Q 1534 2075 1959 2075 
z
" transform="scale(0.015625)"/>
       </defs>
       <use xlink:href="#DejaVuSans-30"/>
       <use xlink:href="#DejaVuSans-2e" x="63.623047"/>
       <use xlink:href="#DejaVuSans-39" x="95.410156"/>
      </g>
     </g>
    </g>
    <g id="ytick_2">
     <g id="line2d_8">
      <g>
       <use xlink:href="#mb2551d1a6f" x="57.6" y="262.157861" style="stroke: #000000; stroke-width: 0.8"/>
      </g>
     </g>
     <g id="text_9">
      <!-- 1.0 -->
      <g transform="translate(34.696875 265.95708) scale(0.1 -0.1)">
       <use xlink:href="#DejaVuSans-31"/>
       <use xlink:href="#DejaVuSans-2e" x="63.623047"/>
       <use xlink:href="#DejaVuSans-30" x="95.410156"/>
      </g>
     </g>
    </g>
    <g id="ytick_3">
     <g id="line2d_9">
      <g>
       <use xlink:href="#mb2551d1a6f" x="57.6" y="220.423195" style="stroke: #000000; stroke-width: 0.8"/>
      </g>
     </g>
     <g id="text_10">
      <!-- 1.1 -->
      <g transform="translate(34.696875 224.222414) scale(0.1 -0.1)">
       <use xlink:href="#DejaVuSans-31"/>
       <use xlink:href="#DejaVuSans-2e" x="63.623047"/>
       <use xlink:href="#DejaVuSans-31" x="95.410156"/>
      </g>
     </g>
    </g>
    <g id="ytick_4">
     <g id="line2d_10">
      <g>
       <use xlink:href="#mb2551d1a6f" x="57.6" y="178.688529" style="stroke: #000000; stroke-width: 0.8"/>
      </g>
     </g>
     <g id="text_11">
      <!-- 1.2 -->
      <g transform="translate(34.696875 182.487748) scale(0.1 -0.1)">
       <use xlink:href="#DejaVuSans-31"/>
       <use xlink:href="#DejaVuSans-2e" x="63.623047"/>
       <use xlink:href="#DejaVuSans-32" x="95.410156"/>
      </g>
     </g>
    </g>
    <g id="ytick_5">
     <g id="line2d_11">
      <g>
       <use xlink:href="#mb2551d1a6f" x="57.6" y="136.953863" style="stroke: #000000; stroke-width: 0.8"/>
      </g>
     </g>
     <g id="text_12">
      <!-- 1.3 -->
      <g transform="translate(34.696875 140.753082) scale(0.1 -0.1)">
       <use xlink:href="#DejaVuSans-31"/>
       <use xlink:href="#DejaVuSans-2e" x="63.623047"/>
       <use xlink:href="#DejaVuSans-33" x="95.410156"/>
      </g>
     </g>
    </g>
    <g id="ytick_6">
     <g id="line2d_12">
      <g>
       <use xlink:href="#mb2551d1a6f" x="57.6" y="95.219197" style="stroke: #000000; stroke-width: 0.8"/>
      </g>
     </g>
     <g id="text_13">
      <!-- 1.4 -->
      <g transform="translate(34.696875 99.018415) scale(0.1 -0.1)">
       <use xlink:href="#DejaVuSans-31"/>
       <use xlink:href="#DejaVuSans-2e" x="63.623047"/>
       <use xlink:href="#DejaVuSans-34" x="95.410156"/>
      </g>
     </g>
    </g>
    <g id="ytick_7">
     <g id="line2d_13">
      <g>
       <use xlink:href="#mb2551d1a6f" x="57.6" y="53.484531" style="stroke: #000000; stroke-width: 0.8"/>
      </g>
     </g>
     <g id="text_14">
      <!-- 1.5 -->
      <g transform="translate(34.696875 57.283749) scale(0.1 -0.1)">
       <use xlink:href="#DejaVuSans-31"/>
       <use xlink:href="#DejaVuSans-2e" x="63.623047"/>
       <use xlink:href="#DejaVuSans-35" x="95.410156"/>
      </g>
     </g>
    </g>
    <g id="text_15">
     <!-- Concentration -->
     <g transform="translate(28.617187 209.899094) rotate(-90) scale(0.1 -0.1)">
      <defs>
       <path id="DejaVuSans-43" d="M 4122 4306 
L 4122 3641 
Q 3803 3938 3442 4084 
Q 3081 4231 2675 4231 
Q 1875 4231 1450 3742 
Q 1025 3253 1025 2328 
Q 1025 1406 1450 917 
Q 1875 428 2675 428 
Q 3081 428 3442 575 
Q 3803 722 4122 1019 
L 4122 359 
Q 3791 134 3420 21 
Q 3050 -91 2638 -91 
Q 1578 -91 968 557 
Q 359 1206 359 2328 
Q 359 3453 968 4101 
Q 1578 4750 2638 4750 
Q 3056 4750 3426 4639 
Q 3797 4528 4122 4306 
z
" transform="scale(0.015625)"/>
       <path id="DejaVuSans-6f" d="M 1959 3097 
Q 1497 3097 1228 2736 
Q 959 2375 959 1747 
Q 959 1119 1226 758 
Q 1494 397 1959 397 
Q 2419 397 2687 759 
Q 2956 1122 2956 1747 
Q 2956 2369 2687 2733 
Q 2419 3097 1959 3097 
z
M 1959 3584 
Q 2709 3584 3137 3096 
Q 3566 2609 3566 1747 
Q 3566 888 3137 398 
Q 2709 -91 1959 -91 
Q 1206 -91 779 398 
Q 353 888 353 1747 
Q 353 2609 779 3096 
Q 1206 3584 1959 3584 
z
" transform="scale(0.015625)"/>
       <path id="DejaVuSans-6e" d="M 3513 2113 
L 3513 0 
L 2938 0 
L 2938 2094 
Q 2938 2591 2744 2837 
Q 2550 3084 2163 3084 
Q 1697 3084 1428 2787 
Q 1159 2491 1159 1978 
L 1159 0 
L 581 0 
L 581 3500 
L 1159 3500 
L 1159 2956 
Q 1366 3272 1645 3428 
Q 1925 3584 2291 3584 
Q 2894 3584 3203 3211 
Q 3513 2838 3513 2113 
z
" transform="scale(0.015625)"/>
       <path id="DejaVuSans-63" d="M 3122 3366 
L 3122 2828 
Q 2878 2963 2633 3030 
Q 2388 3097 2138 3097 
Q 1578 3097 1268 2742 
Q 959 2388 959 1747 
Q 959 1106 1268 751 
Q 1578 397 2138 397 
Q 2388 397 2633 464 
Q 2878 531 3122 666 
L 3122 134 
Q 2881 22 2623 -34 
Q 2366 -91 2075 -91 
Q 1284 -91 818 406 
Q 353 903 353 1747 
Q 353 2603 823 3093 
Q 1294 3584 2113 3584 
Q 2378 3584 2631 3529 
Q 2884 3475 3122 3366 
z
" transform="scale(0.015625)"/>
       <path id="DejaVuSans-74" d="M 1172 4494 
L 1172 3500 
L 2356 3500 
L 2356 3053 
L 1172 3053 
L 1172 1153 
Q 1172 725 1289 603 
Q 1406 481 1766 481 
L 2356 481 
L 2356 0 
L 1766 0 
Q 1100 0 847 248 
Q 594 497 594 1153 
L 594 3053 
L 172 3053 
L 172 3500 
L 594 3500 
L 594 4494 
L 1172 4494 
z
" transform="scale(0.015625)"/>
       <path id="DejaVuSans-72" d="M 2631 2963 
Q 2534 3019 2420 3045 
Q 2306 3072 2169 3072 
Q 1681 3072 1420 2755 
Q 1159 2438 1159 1844 
L 1159 0 
L 581 0 
L 581 3500 
L 1159 3500 
L 1159 2956 
Q 1341 3275 1631 3429 
Q 1922 3584 2338 3584 
Q 2397 3584 2469 3576 
Q 2541 3569 2628 3553 
L 2631 2963 
z
" transform="scale(0.015625)"/>
       <path id="DejaVuSans-61" d="M 2194 1759 
Q 1497 1759 1228 1600 
Q 959 1441 959 1056 
Q 959 750 1161 570 
Q 1363 391 1709 391 
Q 2188 391 2477 730 
Q 2766 1069 2766 1631 
L 2766 1759 
L 2194 1759 
z
M 3341 1997 
L 3341 0 
L 2766 0 
L 2766 531 
Q 2569 213 2275 61 
Q 1981 -91 1556 -91 
Q 1019 -91 701 211 
Q 384 513 384 1019 
Q 384 1609 779 1909 
Q 1175 2209 1959 2209 
L 2766 2209 
L 2766 2266 
Q 2766 2663 2505 2880 
Q 2244 3097 1772 3097 
Q 1472 3097 1187 3025 
Q 903 2953 641 2809 
L 641 3341 
Q 956 3463 1253 3523 
Q 1550 3584 1831 3584 
Q 2591 3584 2966 3190 
Q 3341 2797 3341 1997 
z
" transform="scale(0.015625)"/>
      </defs>
      <use xlink:href="#DejaVuSans-43"/>
      <use xlink:href="#DejaVuSans-6f" x="69.824219"/>
      <use xlink:href="#DejaVuSans-6e" x="131.005859"/>
      <use xlink:href="#DejaVuSans-63" x="194.384766"/>
      <use xlink:href="#DejaVuSans-65" x="249.365234"/>
      <use xlink:href="#DejaVuSans-6e" x="310.888672"/>
      <use xlink:href="#DejaVuSans-74" x="374.267578"/>
      <use xlink:href="#DejaVuSans-72" x="413.476562"/>
      <use xlink:href="#DejaVuSans-61" x="454.589844"/>
      <use xlink:href="#DejaVuSans-74" x="515.869141"/>
      <use xlink:href="#DejaVuSans-69" x="555.078125"/>
      <use xlink:href="#DejaVuSans-6f" x="582.861328"/>
      <use xlink:href="#DejaVuSans-6e" x="644.042969"/>
     </g>
    </g>
   </g>
   <g id="line2d_14">
    <path d="M 73.832727 262.157861 
L 93.930853 262.267623 
L 95.26207 262.263867 
L 98.606346 262.028484 
L 100.846687 262.492156 
L 101.625936 262.387819 
L 102.664934 261.995096 
L 103.444183 261.7113 
L 104.126026 261.644525 
L 104.613056 261.744688 
L 105.457242 262.186658 
L 106.755991 262.914093 
L 107.307958 262.949568 
L 107.794989 262.768856 
L 108.411894 262.283482 
L 109.937923 260.955903 
L 110.360016 260.905821 
L 110.749641 261.064413 
L 111.301609 261.619484 
L 112.048389 262.75884 
L 112.860106 263.858549 
L 113.282199 264.097271 
L 113.606887 264.050528 
L 113.964042 263.747534 
L 114.418604 263.005492 
L 115.165384 261.235525 
L 116.00957 259.457628 
L 116.399195 259.115404 
L 116.691413 259.152965 
L 116.983631 259.461802 
L 117.373256 260.292321 
L 117.990161 262.356935 
L 119.094097 266.184422 
L 119.451253 266.757439 
L 119.711002 266.820041 
L 119.938283 266.60302 
L 120.230502 265.943613 
L 120.620126 264.442417 
L 121.237031 261.026852 
L 122.178624 255.885141 
L 122.568248 254.816733 
L 122.795529 254.670662 
L 122.990341 254.858468 
L 123.217622 255.4511 
L 123.542309 256.978589 
L 123.996871 260.267281 
L 125.555369 272.588189 
L 125.815118 273.170387 
L 125.977462 273.150355 
L 126.139805 272.81606 
L 126.399555 271.615354 
L 126.756711 268.675564 
L 127.27621 262.236322 
L 128.574958 245.226107 
L 128.899645 243.527506 
L 129.061988 243.348047 
L 129.191863 243.552547 
L 129.386675 244.449842 
L 129.678894 247.120861 
L 130.100987 253.489571 
L 130.847767 269.084146 
L 131.562078 282.362448 
L 131.919234 285.803471 
L 132.114046 286.365219 
L 132.211452 286.259631 
L 132.373796 285.485035 
L 132.601077 283.11868 
L 132.925764 277.187766 
L 133.412794 263.411153 
L 135.003761 213.774863 
L 135.295979 211.245742 
L 135.360916 211.158099 
L 135.393385 211.18314 
L 135.52326 211.729864 
L 135.718072 213.895893 
L 136.01029 220.064277 
L 136.432384 234.216502 
L 138.02335 293.442167 
L 138.250631 295.435832 
L 138.315568 295.479653 
L 138.348037 295.409956 
L 138.477912 294.508487 
L 138.672724 291.238994 
L 138.964942 281.961377 
L 139.354567 261.798943 
L 139.971472 216.032708 
L 141.010471 138.360321 
L 141.432564 122.129709 
L 141.692313 118.849365 
L 141.724782 118.803457 
L 141.757251 118.841018 
L 141.854657 119.429477 
L 142.049469 122.65974 
L 142.341687 132.100121 
L 142.828718 156.698533 
L 143.965122 216.182953 
L 144.322278 224.175141 
L 144.484622 225.109998 
L 144.51709 225.080784 
L 144.614496 224.563274 
L 144.77684 222.242826 
L 145.036589 214.772321 
L 145.426214 195.515946 
L 146.010651 153.163607 
L 147.114586 72.523885 
L 147.536679 57.031977 
L 147.796429 53.672337 
L 147.861367 53.568 
L 147.893835 53.622255 
L 148.02371 54.527897 
L 148.250991 58.626242 
L 148.608147 70.524795 
L 149.225052 100.815815 
L 150.199113 147.479346 
L 150.621206 158.860389 
L 150.913424 162.165775 
L 151.010831 162.395315 
L 151.043299 162.374448 
L 151.140705 162.023877 
L 151.335518 160.054 
L 151.627736 154.144372 
L 152.049829 140.413667 
L 153.835608 75.545475 
L 154.127826 72.557273 
L 154.257701 72.248437 
L 154.290169 72.269304 
L 154.387575 72.548926 
L 154.582388 74.076415 
L 154.874606 78.533677 
L 155.329168 89.37217 
L 156.855197 128.83647 
L 157.212353 132.738662 
L 157.439633 133.590049 
L 157.53704 133.560834 
L 157.666914 133.172702 
L 157.894195 131.553397 
L 158.218882 127.404971 
L 158.738381 117.526376 
L 159.972192 93.190892 
L 160.394285 89.109242 
L 160.654035 88.21612 
L 160.78391 88.232814 
L 160.946253 88.671028 
L 161.206003 90.256945 
L 161.595627 94.330248 
L 162.374876 105.627822 
L 163.121656 115.214275 
L 163.543749 118.298467 
L 163.835968 119.145681 
L 163.998311 119.149854 
L 164.160655 118.828497 
L 164.420404 117.693314 
L 164.810029 114.771888 
L 165.52434 107.272168 
L 166.336058 99.471959 
L 166.758151 97.159859 
L 167.050369 96.496278 
L 167.212713 96.467063 
L 167.375056 96.671563 
L 167.634806 97.443654 
L 168.02443 99.463612 
L 168.738742 104.642884 
L 169.550459 109.972401 
L 170.005021 111.59588 
L 170.297239 111.954798 
L 170.492051 111.888022 
L 170.719332 111.520757 
L 171.044019 110.514952 
L 171.595987 107.877321 
L 172.797329 101.834141 
L 173.251891 100.686438 
L 173.544109 100.444377 
L 173.77139 100.527846 
L 174.063609 100.957713 
L 174.453233 101.984386 
L 175.232482 104.855731 
L 175.946793 107.205393 
L 176.401355 108.04426 
L 176.726042 108.236239 
L 176.985792 108.144423 
L 177.27801 107.798025 
L 177.667634 107.013413 
L 178.576758 104.500986 
L 179.226132 102.990192 
L 179.680694 102.418427 
L 180.03785 102.309916 
L 180.330068 102.439294 
L 180.719692 102.869161 
L 181.498941 104.271446 
L 182.408065 105.803108 
L 182.862627 106.182894 
L 183.252251 106.228802 
L 183.576938 106.08273 
L 183.966562 105.715465 
L 184.680874 104.72218 
L 185.557529 103.570303 
L 186.044559 103.223906 
L 186.499121 103.15713 
L 186.921214 103.307375 
L 187.635526 103.895834 
L 189.096617 105.076925 
L 189.583648 105.152047 
L 190.168084 104.976762 
L 190.914865 104.471772 
L 192.148675 103.653773 
L 192.765581 103.524395 
L 193.382486 103.628732 
L 194.03186 103.908354 
L 195.395545 104.488466 
L 196.012451 104.534374 
L 196.596887 104.425864 
L 197.506011 104.079466 
L 198.869696 103.670467 
L 200.168444 103.778977 
L 201.986692 104.133721 
L 203.188034 104.029385 
L 205.03875 103.66212 
L 207.149215 103.77063 
L 208.77265 103.870793 
L 210.03893 103.762283 
L 212.084458 103.607865 
L 214.194923 103.716375 
L 215.136516 103.733069 
L 216.53267 103.66212 
L 229.390276 103.55361 
L 230.396805 103.532742 
L 244.098597 103.424232 
L 245.007721 103.415885 
L 253.579458 103.307375 
L 254.553519 103.290681 
L 264.066849 103.182171 
L 264.975973 103.173824 
L 283.125977 103.065314 
L 284.002632 103.06114 
L 334.0369 102.95263 
L 334.913555 102.948457 
L 375.207214 102.839947 
L 376.083869 102.835773 
L 398.487273 102.798212 
L 398.487273 102.798212 
" clip-path="url(#p4bffb8e344)" style="fill: none; stroke: #1f77b4; stroke-width: 1.5; stroke-linecap: square"/>
   </g>
   <g id="line2d_15">
    <path d="M 73.832727 262.157861 
L 100.749281 262.268875 
L 102.080498 262.260946 
L 103.801339 261.995096 
L 104.905275 261.961708 
L 105.587117 262.070218 
L 106.431303 262.289325 
L 107.600177 262.490069 
L 108.444363 262.380724 
L 109.580768 261.945014 
L 110.295079 261.69878 
L 110.911984 261.644525 
L 111.658764 261.849024 
L 112.27567 262.20043 
L 113.541949 262.906998 
L 114.093917 262.946646 
L 114.613416 262.751328 
L 115.230322 262.258859 
L 116.723882 260.96425 
L 117.145975 260.909994 
L 117.535599 261.064413 
L 117.990161 261.485933 
L 118.607067 262.368621 
L 119.646065 263.836012 
L 120.068158 264.080577 
L 120.392845 264.039677 
L 120.750001 263.742526 
L 121.172094 263.07185 
L 121.853937 261.49428 
L 122.698123 259.620393 
L 123.120216 259.152965 
L 123.412434 259.119577 
L 123.672184 259.311557 
L 124.02934 259.92923 
L 124.51637 261.331515 
L 126.139805 266.565876 
L 126.432024 266.755352 
L 126.659304 266.61721 
L 126.919054 266.140183 
L 127.27621 264.947406 
L 127.795709 262.318539 
L 129.094457 255.380151 
L 129.451613 254.637274 
L 129.646425 254.599713 
L 129.841237 254.845947 
L 130.100987 255.618039 
L 130.490611 257.679731 
L 131.075048 262.329808 
L 132.146515 271.002271 
L 132.503671 272.315661 
L 132.698483 272.460063 
L 132.860826 272.23887 
L 133.088107 271.388734 
L 133.412794 269.098753 
L 133.867356 264.05178 
L 135.52326 243.627669 
L 135.815478 242.655252 
L 135.945353 242.655252 
L 136.107697 243.047557 
L 136.334977 244.316291 
L 136.692133 247.934687 
L 137.211632 256.022865 
L 138.412974 275.717454 
L 138.737661 277.840079 
L 138.867536 278.02079 
L 138.900005 278.001592 
L 139.02988 277.66062 
L 139.224692 276.342222 
L 139.51691 272.562731 
L 139.939003 263.680759 
L 140.750721 240.301416 
L 141.465032 222.409765 
L 141.887125 216.6003 
L 142.146875 215.260617 
L 142.244281 215.210535 
L 142.27675 215.248096 
L 142.406625 215.66127 
L 142.633906 217.35987 
L 142.991061 222.25952 
L 143.575498 234.258237 
L 144.51709 253.172387 
L 144.874246 256.707314 
L 145.101527 257.341681 
L 145.198933 257.203956 
L 145.361276 256.415171 
L 145.621026 253.748326 
L 146.010651 246.866279 
L 146.692493 229.642383 
L 147.536679 209.517927 
L 147.991241 203.303635 
L 148.28346 201.58834 
L 148.445803 201.413055 
L 148.575678 201.659289 
L 148.77049 202.627533 
L 149.062708 205.286032 
L 149.549739 212.176425 
L 151.010831 234.592114 
L 151.367986 236.900041 
L 151.595267 237.329908 
L 151.725142 237.213051 
L 151.919954 236.54947 
L 152.212172 234.550379 
L 152.666734 229.546393 
L 154.257701 210.273324 
L 154.614856 208.633152 
L 154.842137 208.349356 
L 154.972012 208.441172 
L 155.199293 209.029631 
L 155.52398 210.699018 
L 156.011011 214.551127 
L 157.374696 226.094936 
L 157.76432 227.659986 
L 158.02407 228.027251 
L 158.186414 227.977169 
L 158.381226 227.647466 
L 158.673444 226.645834 
L 159.128006 224.145927 
L 160.686504 214.642944 
L 161.076128 213.716434 
L 161.335878 213.582883 
L 161.53069 213.728954 
L 161.790439 214.225597 
L 162.180064 215.506851 
L 162.894375 218.791369 
L 163.738561 222.305428 
L 164.193123 223.30706 
L 164.485342 223.515734 
L 164.745091 223.407224 
L 165.004841 223.052479 
L 165.426934 222.02998 
L 166.238652 219.288012 
L 167.0179 217.067728 
L 167.439993 216.450055 
L 167.76468 216.329024 
L 168.056899 216.466749 
L 168.414054 216.92583 
L 168.933554 217.994237 
L 170.297239 220.89897 
L 170.719332 221.270409 
L 171.011551 221.316317 
L 171.336238 221.170245 
L 171.758331 220.711164 
L 172.53758 219.421563 
L 173.349297 218.182043 
L 173.836328 217.781391 
L 174.290889 217.722962 
L 174.648045 217.873207 
L 175.135076 218.307247 
L 176.044199 219.400696 
L 176.726042 220.035063 
L 177.213073 220.231215 
L 177.667634 220.189481 
L 178.122196 219.964114 
L 180.297599 218.424104 
L 180.914505 218.444972 
L 181.563879 218.720421 
L 183.674344 219.692838 
L 184.388656 219.592675 
L 186.888746 218.745461 
L 187.732932 218.849798 
L 190.330428 219.409043 
L 191.109677 219.300532 
L 192.960393 218.937441 
L 194.551359 219.045951 
L 197.01898 219.254624 
L 198.057979 219.146114 
L 199.908695 219.016737 
L 201.79188 219.150288 
L 398.487273 219.058471 
L 398.487273 219.058471 
" clip-path="url(#p4bffb8e344)" style="fill: none; stroke: #ff7f0e; stroke-width: 1.5; stroke-linecap: square"/>
   </g>
   <g id="patch_3">
    <path d="M 57.6 307.584 
L 57.6 41.472 
" style="fill: none; stroke: #000000; stroke-width: 0.8; stroke-linejoin: miter; stroke-linecap: square"/>
   </g>
   <g id="patch_4">
    <path d="M 414.72 307.584 
L 414.72 41.472 
" style="fill: none; stroke: #000000; stroke-width: 0.8; stroke-linejoin: miter; stroke-linecap: square"/>
   </g>
   <g id="patch_5">
    <path d="M 57.6 307.584 
L 414.72 307.584 
" style="fill: none; stroke: #000000; stroke-width: 0.8; stroke-linejoin: miter; stroke-linecap: square"/>
   </g>
   <g id="patch_6">
    <path d="M 57.6 41.472 
L 414.72 41.472 
" style="fill: none; stroke: #000000; stroke-width: 0.8; stroke-linejoin: miter; stroke-linecap: square"/>
   </g>
   <g id="legend_1">
    <g id="patch_7">
     <path d="M 369.3825 78.82825 
L 407.72 78.82825 
Q 409.72 78.82825 409.72 76.82825 
L 409.72 48.472 
Q 409.72 46.472 407.72 46.472 
L 369.3825 46.472 
Q 367.3825 46.472 367.3825 48.472 
L 367.3825 76.82825 
Q 367.3825 78.82825 369.3825 78.82825 
z
" style="fill: #ffffff; opacity: 0.8; stroke: #cccccc; stroke-linejoin: miter"/>
    </g>
    <g id="line2d_16">
     <path d="M 371.3825 54.570437 
L 381.3825 54.570437 
L 391.3825 54.570437 
" style="fill: none; stroke: #1f77b4; stroke-width: 1.5; stroke-linecap: square"/>
    </g>
    <g id="text_16">
     <!-- u -->
     <g transform="translate(399.3825 58.070437) scale(0.1 -0.1)">
      <defs>
       <path id="DejaVuSans-75" d="M 544 1381 
L 544 3500 
L 1119 3500 
L 1119 1403 
Q 1119 906 1312 657 
Q 1506 409 1894 409 
Q 2359 409 2629 706 
Q 2900 1003 2900 1516 
L 2900 3500 
L 3475 3500 
L 3475 0 
L 2900 0 
L 2900 538 
Q 2691 219 2414 64 
Q 2138 -91 1772 -91 
Q 1169 -91 856 284 
Q 544 659 544 1381 
z
M 1991 3584 
L 1991 3584 
z
" transform="scale(0.015625)"/>
      </defs>
      <use xlink:href="#DejaVuSans-75"/>
     </g>
    </g>
    <g id="line2d_17">
     <path d="M 371.3825 69.248562 
L 381.3825 69.248562 
L 391.3825 69.248562 
" style="fill: none; stroke: #ff7f0e; stroke-width: 1.5; stroke-linecap: square"/>
    </g>
    <g id="text_17">
     <!-- v -->
     <g transform="translate(399.3825 72.748562) scale(0.1 -0.1)">
      <defs>
       <path id="DejaVuSans-76" d="M 191 3500 
L 800 3500 
L 1894 563 
L 2988 3500 
L 3597 3500 
L 2284 0 
L 1503 0 
L 191 3500 
z
" transform="scale(0.015625)"/>
      </defs>
      <use xlink:href="#DejaVuSans-76"/>
     </g>
    </g>
   </g>
  </g>
 </g>
 <defs>
  <clipPath id="p4bffb8e344">
   <rect x="57.6" y="41.472" width="357.12" height="266.112"/>
  </clipPath>
 </defs>
</svg>
